<svg width="35" height="34" viewBox="0 0 35 34" fill="none" xmlns="http://www.w3.org/2000/svg">
<g clip-path="url(#clip0_190_36009)">
<path d="M18.9424 33.2934H22.3014C22.4646 33.3083 22.627 33.2586 22.7539 33.1551C22.8808 33.0515 22.9621 32.9023 22.9803 32.7396L22.3001 28.5505" stroke="white" stroke-width="0.999996" stroke-linecap="round" stroke-linejoin="round"/>
<path d="M16.3684 24.7729H31.0463C31.3498 24.7737 31.6504 24.7142 31.9307 24.5979C32.2111 24.4817 32.4655 24.3109 32.6793 24.0955C32.8932 23.8802 33.0621 23.6245 33.1764 23.3434C33.2907 23.0623 33.348 22.7613 33.3451 22.4578V3.05005C33.3478 2.74713 33.2902 2.4467 33.1757 2.16622C33.0612 1.88574 32.8921 1.63083 32.6782 1.4163C32.4643 1.20178 32.2099 1.03192 31.9297 0.916619C31.6495 0.801316 31.3492 0.742866 31.0463 0.744669H3.12658C2.82387 0.743058 2.52387 0.801672 2.24403 0.917098C1.96419 1.03252 1.71012 1.20246 1.4966 1.417C1.28307 1.63155 1.11436 1.88642 1.00029 2.16678C0.886226 2.44715 0.829075 2.7474 0.83217 3.05005V22.4578C0.828837 22.761 0.885754 23.0618 0.999618 23.3428C1.11348 23.6239 1.28203 23.8795 1.49547 24.0948C1.70891 24.3102 1.96301 24.4811 2.24301 24.5975C2.52301 24.7139 2.82334 24.7735 3.12658 24.7729H3.6467" stroke="white" stroke-width="0.999996" stroke-linecap="round" stroke-linejoin="round"/>
<path d="M16.3682 20.5327H33.3455" stroke="white" stroke-width="0.999996" stroke-linecap="round" stroke-linejoin="round"/>
<path d="M0.833984 20.5327H3.64706" stroke="white" stroke-width="0.999996" stroke-linecap="round" stroke-linejoin="round"/>
<path d="M14.9652 14.8296H5.04878C4.27431 14.8296 3.64648 15.4573 3.64648 16.2317V31.8501C3.64648 32.6245 4.27431 33.2522 5.04878 33.2522H14.9652C15.7397 33.2522 16.3675 32.6245 16.3675 31.8501V16.2317C16.3675 15.4573 15.7397 14.8296 14.9652 14.8296Z" stroke="white" stroke-width="0.999996" stroke-linecap="round" stroke-linejoin="round"/>
<path d="M20.624 10.4919L22.1182 11.8459L24.7956 8.30811" stroke="white" stroke-width="0.999996" stroke-linecap="round" stroke-linejoin="round"/>
<path d="M7.8877 24.8297L9.38187 26.1852L12.0592 22.646" stroke="white" stroke-width="0.999996" stroke-linecap="round" stroke-linejoin="round"/>
</g>
<defs>
<clipPath id="clip0_190_36009">
<rect width="34" height="34" fill="white" transform="translate(0.0517578)"/>
</clipPath>
</defs>
</svg>
