<svg width="100" height="100" viewBox="0 0 100 100" fill="none" xmlns="http://www.w3.org/2000/svg">
<path fill-rule="evenodd" clip-rule="evenodd" d="M40.0442 46.5734C40.5989 47.1279 40.5989 48.0273 40.0442 48.5818C39.4895 49.1363 38.5903 49.1363 38.0358 48.5818L30.9678 41.5138C30.4131 40.9594 30.4131 40.0599 30.9678 39.5054L38.0358 32.4375C38.5905 31.8828 39.4897 31.8828 40.0442 32.4375C40.5989 32.9922 40.5989 33.8914 40.0442 34.4459L33.9805 40.5095L40.0442 46.5734ZM55.1532 48.825C54.5985 49.3795 53.6992 49.3795 53.1448 48.825C52.5901 48.2703 52.5901 47.3711 53.1448 46.8166L59.2084 40.7529L53.1448 34.6892C52.5901 34.1347 52.5901 33.2353 53.1448 32.6808C53.6994 32.1263 54.5987 32.1263 55.1532 32.6808L62.2211 39.7488C62.7758 40.3035 62.7758 41.2027 62.2211 41.7572L55.1532 48.8252V48.825ZM45.0256 51.9668C44.8235 52.7236 44.0459 53.1732 43.2891 52.9711C42.5323 52.7689 42.0826 51.9914 42.285 51.2345L48.1635 29.2957C48.3657 28.5388 49.1432 28.0892 49.9 28.2914C50.6569 28.4935 51.1065 29.2711 50.9041 30.0279L45.0256 51.9668ZM73.4754 18.3773C74.8084 17.0109 76.7662 16.0908 78.8119 16.0908V16.0963C80.8928 16.075 82.7858 16.8959 84.1655 18.2416C85.5317 19.5744 86.452 21.5326 86.452 23.5779H86.4465C86.4893 27.7474 83.1502 31.1607 78.9813 31.2125C74.8051 31.2642 71.3823 27.9224 71.3303 23.7472C71.3043 21.6599 72.1264 19.7603 73.4756 18.3771L73.4754 18.3773ZM78.8285 18.926L78.8119 18.9263V18.9316C76.2635 18.9316 74.1272 21.0986 74.1596 23.7142C74.2115 27.898 79.3297 29.9715 82.2705 26.9566C83.1186 26.0873 83.6403 24.8847 83.6166 23.5783H83.6114C83.6114 21.0301 81.4444 18.8933 78.8285 18.926ZM83.4895 12.451C83.124 12.3008 82.7446 12.1668 82.3524 12.0498C81.8426 11.9228 81.4235 11.5162 81.3073 10.9676L80.7791 8.51912L76.8524 8.56795L76.4117 10.8892C76.3379 11.4232 75.9615 11.8914 75.4114 12.0552C74.7465 12.2539 73.7342 12.6502 73.1502 12.9883C72.7002 13.2679 72.1112 13.2826 71.6356 12.9775L69.5244 11.6154L66.7821 14.4267L68.1371 16.4168C68.4383 16.8422 68.4928 17.4181 68.2293 17.9084C67.8942 18.5304 67.4649 19.5011 67.2897 20.1636C67.1703 20.6853 66.7592 21.117 66.2012 21.2353L63.7526 21.7635L63.8014 25.6902L66.1231 26.1308C66.6571 26.2047 67.1252 26.581 67.2891 27.1312C67.4877 27.7963 67.884 28.8076 68.2221 29.3918C68.5018 29.8418 68.5164 30.4308 68.2114 30.9064L66.8489 33.0181L69.6602 35.7603L71.65 34.4054C72.0754 34.1043 72.6514 34.0498 73.1416 34.3133C73.8061 34.6713 74.7033 35.0621 75.4235 35.2592C75.9334 35.3861 76.3526 35.7927 76.4688 36.3414L76.9969 38.7898L80.9237 38.741L81.3643 36.4193C81.4381 35.8853 81.8145 35.4172 82.3647 35.2533C83.0295 35.0549 84.041 34.6584 84.625 34.3203C85.075 34.0406 85.6643 34.0258 86.1399 34.331L88.2516 35.6935L90.994 32.8822L89.6391 30.8924C89.3379 30.467 89.2834 29.891 89.5469 29.4008C89.8819 28.7789 90.3113 27.8076 90.4865 27.1453C90.6059 26.6234 91.017 26.1918 91.575 26.0736L94.0235 25.5457L93.9746 21.6189L91.653 21.1783C91.119 21.1047 90.6508 20.7281 90.4869 20.1779C90.2883 19.5129 89.8922 18.5017 89.5539 17.9174C89.2742 17.4674 89.2596 16.8783 89.5647 16.4027L90.9272 14.291L88.1159 11.5486L86.126 12.9035C85.7006 13.2047 85.1246 13.2594 84.6344 12.9957C84.2516 12.789 83.8694 12.6072 83.4895 12.451ZM70.2248 87.0437H23.3143V91.484H70.2248V87.0437ZM57.0532 84.2031C54.4532 82.1092 52.6985 79.0463 52.3186 75.6064H41.2207C40.8407 79.0465 39.086 82.1094 36.4862 84.2031H57.0532ZM55.1815 75.6064H84.8879C87.7332 75.6064 90.0563 73.2838 90.0563 70.4383V37.9002L93.793 34.0693C94.2893 33.5992 94.3854 32.8252 93.9877 32.2426L92.4348 29.9619L92.9619 28.6752L95.7465 28.0746L95.7459 28.0718C96.393 27.9353 96.8752 27.3574 96.8672 26.6709L96.7903 20.4998C96.8192 19.8076 96.3364 19.181 95.6354 19.0498L92.9291 18.5361L92.3899 17.2519L93.9383 14.8517L93.9377 14.8513C94.2948 14.2965 94.2244 13.5488 93.733 13.0709L89.3026 8.7492C88.8325 8.25291 88.0584 8.15681 87.4758 8.55447L85.1951 10.1072L83.9084 9.57908L83.308 6.79548L83.3053 6.79607C83.1688 6.149 82.5909 5.66677 81.9043 5.67478L75.7332 5.75154C75.041 5.72263 74.4145 6.20544 74.2832 6.90642L73.7698 9.61228L72.4848 10.1515L70.0852 8.60349L70.0848 8.60408C69.5299 8.24705 68.7822 8.31736 68.3043 8.80877L64.869 12.3304H8.30081C5.4553 12.3304 3.13245 14.6533 3.13245 17.4986V70.4377C3.13245 73.283 5.4553 75.6058 8.30081 75.6058H38.3576C37.6614 80.4746 33.4432 84.2023 28.449 84.2023C23.4549 84.2023 22.3455 84.2025 22.3455 84.2025C21.8293 84.2025 21.361 84.4127 21.0225 84.7511L21.0252 84.7539C20.6848 85.0955 20.4737 85.5629 20.4737 86.0742V92.4519C20.4737 93.4844 21.3131 94.3238 22.3455 94.3238H71.1936C72.2182 94.3238 73.0655 93.4765 73.0655 92.4519V86.0742C73.0655 85.2308 72.5168 84.7742 72.5168 84.7511C72.1783 84.4127 71.71 84.2025 71.1938 84.2025H65.0903C60.0961 84.2023 55.878 80.4746 55.1817 75.6058L55.1815 75.6064ZM87.2157 66.3924V70.4383C87.2157 71.7154 86.1653 72.7658 84.8879 72.7658H8.30081C7.02366 72.7658 5.97307 71.7156 5.97307 70.4383V66.3924H87.2157ZM5.97307 63.5517H87.2157V38.3986L85.2905 37.1566L84.0061 37.6959L83.4924 40.4021C83.3612 41.1031 82.7346 41.5859 82.0424 41.557L75.8713 41.634C75.1848 41.642 74.6069 41.1597 74.4703 40.5127L74.4676 40.5133L73.8672 37.7295L72.5803 37.2013L70.2998 38.7541C69.717 39.1517 68.9432 39.0556 68.4731 38.5593L64.0426 34.2379C63.5514 33.7599 63.4811 33.0123 63.8379 32.4574L63.8373 32.457L65.3858 30.057L64.8465 28.7726L62.1403 28.259C61.4393 28.1277 60.9565 27.5011 60.9854 26.809L60.9086 20.6379C60.9006 19.9513 61.3828 19.3734 62.0299 19.2369L62.0293 19.2342L64.8141 18.6336L65.3412 17.347L63.8598 15.1715H8.30081C7.02346 15.1715 5.97307 16.2219 5.97307 17.499V63.5515V63.5517Z" fill="white"/>
</svg>
