<svg width="34" height="34" viewBox="0 0 34 34" fill="none" xmlns="http://www.w3.org/2000/svg">
<rect x="0.499939" y="0.5" width="33" height="33" rx="4.5" stroke="white"/>
<path d="M25.9999 13L22.4391 14.9782C20.4539 16.0811 19.4613 16.6326 18.4101 16.8488C17.4797 17.0401 16.5201 17.0401 15.5897 16.8488C14.5386 16.6326 13.546 16.0811 11.5607 14.9782L7.99994 13M11.1999 24H22.7999C23.92 24 24.4801 24 24.9079 23.782C25.2842 23.5903 25.5902 23.2843 25.7819 22.908C25.9999 22.4802 25.9999 21.9201 25.9999 20.8V13.2C25.9999 12.0799 25.9999 11.5198 25.7819 11.092C25.5902 10.7157 25.2842 10.4097 24.9079 10.218C24.4801 10 23.92 10 22.7999 10H11.1999C10.0798 10 9.51978 10 9.09196 10.218C8.71563 10.4097 8.40967 10.7157 8.21793 11.092C7.99994 11.5198 7.99994 12.0799 7.99994 13.2V20.8C7.99994 21.9201 7.99994 22.4802 8.21793 22.908C8.40967 23.2843 8.71563 23.5903 9.09196 23.782C9.51978 24 10.0798 24 11.1999 24Z" stroke="white" stroke-linecap="round" stroke-linejoin="round"/>
</svg>
