<svg width="60" height="60" viewBox="0 0 60 60" fill="none" xmlns="http://www.w3.org/2000/svg">
<circle cx="30" cy="30" r="30" fill="white"/>
<path d="M41.25 25L36.799 27.4728C34.3175 28.8514 33.0768 29.5407 31.7628 29.811C30.5998 30.0501 29.4002 30.0501 28.2372 29.811C26.9233 29.5407 25.6825 28.8514 23.201 27.4728L18.75 25M22.75 38.75H37.25C38.6501 38.75 39.3503 38.75 39.885 38.4775C40.3554 38.2379 40.7379 37.8554 40.9775 37.385C41.25 36.8503 41.25 36.1501 41.25 34.75V25.25C41.25 23.8499 41.25 23.1498 40.9775 22.615C40.7379 22.1446 40.3554 21.7622 39.885 21.5225C39.3503 21.25 38.6501 21.25 37.25 21.25H22.75C21.3499 21.25 20.6498 21.25 20.115 21.5225C19.6446 21.7622 19.2622 22.1446 19.0225 22.615C18.75 23.1498 18.75 23.8499 18.75 25.25V34.75C18.75 36.1501 18.75 36.8503 19.0225 37.385C19.2622 37.8554 19.6446 38.2379 20.115 38.4775C20.6498 38.75 21.3499 38.75 22.75 38.75Z" stroke="#194EFF" stroke-width="2" stroke-linecap="round" stroke-linejoin="round"/>
</svg>
