<svg width="34" height="34" viewBox="0 0 34 34" fill="none" xmlns="http://www.w3.org/2000/svg">
<path d="M25.0186 26.7982C24.2729 26.7982 23.6447 27.3102 23.4674 28.0015H21.8484C21.5907 28.0015 21.3816 27.7917 21.3816 27.5347V23.9654H21.6266C23.9309 23.9654 25.8055 22.0907 25.8055 19.7864C25.8055 17.9682 24.6395 16.3798 22.9335 15.818C23.0723 15.0842 23.5577 14.5171 24.1162 13.865C25.006 12.8264 26.0154 11.649 25.9649 9.4443C25.9623 6.44871 23.5245 4.01293 20.5289 4.01293C17.5333 4.01293 15.0949 6.44871 15.0929 9.4443C15.0637 10.7405 15.4004 11.6815 15.8632 12.4479C15.7085 12.5408 15.5591 12.6431 15.417 12.7553C14.7064 11.7732 13.5642 11.1795 12.3317 11.1795C10.2326 11.1795 8.52531 12.8875 8.52531 14.9859C8.52531 15.217 8.5459 15.4468 8.58707 15.6725C6.62211 16.0238 5.14391 17.7471 5.14391 19.7864C5.14391 22.0907 7.01855 23.9654 9.32285 23.9654H9.56789V27.5347C9.56789 27.7923 9.35805 28.0015 9.10105 28.0015H7.48207C7.30477 27.3102 6.6759 26.7982 5.93082 26.7982C5.04762 26.7982 4.3291 27.5168 4.3291 28.4C4.3291 29.2832 5.04762 30.0017 5.93082 30.0017C6.67656 30.0017 7.30477 29.4897 7.48207 28.7984H9.10105C9.79832 28.7984 10.3648 28.2313 10.3648 27.5347V23.9654H13.2282V29.8509C12.5369 30.0282 12.0249 30.6571 12.0249 31.4022C12.0249 32.2854 12.7434 33.0039 13.6266 33.0039C14.5098 33.0039 15.2284 32.2854 15.2284 31.4022C15.2284 30.6564 14.7164 30.0282 14.0251 29.8509V23.9654H16.9237V28.052C16.2324 28.2293 15.7204 28.8582 15.7204 29.6032C15.7204 30.4864 16.4389 31.205 17.3221 31.205C18.2054 31.205 18.9239 30.4864 18.9239 29.6032C18.9239 28.8575 18.4119 28.2293 17.7206 28.052V23.9654H20.584V27.5347C20.584 28.232 21.1511 28.7984 21.8477 28.7984H23.4667C23.644 29.4897 24.2729 30.0017 25.018 30.0017C25.9012 30.0017 26.6197 29.2832 26.6197 28.4C26.6203 27.5168 25.9018 26.7982 25.0186 26.7982ZM5.93148 29.2048C5.48789 29.2048 5.12664 28.8436 5.12664 28.4C5.12664 27.9564 5.48789 27.5951 5.93148 27.5951C6.37508 27.5951 6.73633 27.9564 6.73633 28.4C6.73633 28.8442 6.37508 29.2048 5.93148 29.2048ZM14.4321 31.4022C14.4321 31.8458 14.0709 32.207 13.6273 32.207C13.1837 32.207 12.8225 31.8458 12.8225 31.4022C12.8225 30.9586 13.1837 30.5973 13.6273 30.5973C14.0709 30.5973 14.4321 30.9586 14.4321 31.4022ZM18.1277 29.6032C18.1277 30.0468 17.7664 30.4081 17.3228 30.4081C16.8792 30.4081 16.518 30.0468 16.518 29.6032C16.518 29.1596 16.8792 28.7984 17.3228 28.7984C17.7664 28.7984 18.1277 29.1596 18.1277 29.6032ZM19.8376 14.9281H21.2202V15.4667H19.8376V14.9281ZM22.1227 16.2636V17.0724H18.9358V16.2636H22.1227ZM18.9352 17.8693H22.122V18.1834L21.4095 18.8932C21.2826 19.0194 21.1478 19.0785 20.9838 19.0785H20.0734C19.9093 19.0785 19.7745 19.0194 19.6477 18.8932L18.9352 18.1834V17.8693ZM15.8898 9.45758C15.8898 9.45426 15.8898 9.4516 15.8898 9.44828C15.8898 6.89031 17.9709 4.80914 20.5289 4.80914C23.0869 4.80914 25.168 6.89031 25.168 9.44828V9.45758C25.2125 11.3608 24.3473 12.3702 23.5112 13.3457C22.9474 14.0037 22.4115 14.6293 22.195 15.466H22.0164V14.5297C22.0164 14.3099 21.8378 14.1313 21.618 14.1313H21.3922L21.8816 10.2711C22.0197 10.3315 22.1791 10.366 22.3584 10.366C22.9946 10.366 23.5119 9.84871 23.5119 9.21254C23.5119 8.57637 22.9946 8.05906 22.3584 8.05906C22.0151 8.05906 21.7103 8.19055 21.5004 8.43027C21.3191 8.6368 21.2182 8.90906 21.2155 9.19926C21.2136 9.20855 21.2122 9.21785 21.2109 9.22715L20.5893 14.1313H20.4665L19.8462 9.23977C19.8449 9.23047 19.8436 9.22117 19.8416 9.21187C19.8389 8.92234 19.738 8.64941 19.5567 8.44289C19.3469 8.20383 19.0421 8.07168 18.6987 8.07168C18.0626 8.07168 17.5453 8.58898 17.5453 9.22516C17.5453 9.86133 18.0626 10.3786 18.6987 10.3786C18.878 10.3786 19.0368 10.3441 19.1755 10.2837L19.6636 14.1313H19.4398C19.22 14.1313 19.0414 14.3099 19.0414 14.5297V15.4667H18.8628C18.6463 14.63 18.1104 14.0037 17.5466 13.3463C16.7099 12.3702 15.8446 11.3608 15.8898 9.45758ZM22.0124 9.21187C22.0124 9.11227 22.0443 9.0193 22.0994 8.95621C22.1585 8.88914 22.2429 8.8566 22.3584 8.8566C22.555 8.8566 22.715 9.01664 22.715 9.2132C22.715 9.40977 22.555 9.56981 22.3584 9.56981C22.0377 9.56914 22.0124 9.29555 22.0124 9.21187ZM19.0454 9.22449C19.0454 9.30816 19.0202 9.58176 18.6994 9.58176C18.5029 9.58176 18.3428 9.42172 18.3428 9.22516C18.3428 9.02859 18.5029 8.86856 18.6994 8.86856C18.815 8.86856 18.8993 8.90109 18.9584 8.96816C19.0135 9.03191 19.0454 9.12488 19.0454 9.22449ZM5.94145 19.7857C5.94145 18.0067 7.33199 16.5245 9.10703 16.411C9.22922 16.403 9.34145 16.3393 9.41051 16.2383C9.47957 16.1374 9.49883 16.0099 9.46164 15.893C9.36934 15.6002 9.32219 15.2954 9.32219 14.9852C9.32219 13.3257 10.6722 11.9757 12.3317 11.9757C13.4374 11.9757 14.4521 12.58 14.98 13.5535C15.0398 13.6638 15.148 13.7395 15.2729 13.758C15.397 13.7766 15.5225 13.7348 15.6115 13.6458C15.8234 13.4346 16.0591 13.254 16.3154 13.1046C16.5206 13.3729 16.7345 13.6226 16.9416 13.8643C17.5207 14.5396 18.0207 15.1247 18.1383 15.8983V18.3487C18.1383 18.4543 18.1808 18.5559 18.2558 18.6309L19.0859 19.4577C19.3641 19.7346 19.6962 19.8754 20.074 19.8754H20.9845C21.3623 19.8754 21.695 19.7346 21.9726 19.4577L22.8027 18.6309C22.8777 18.5559 22.9202 18.4543 22.9202 18.3487V16.662C24.172 17.1793 25.01 18.3998 25.01 19.7857C25.01 21.6504 23.4926 23.1678 21.6279 23.1678H9.32351C7.45816 23.1678 5.94145 21.6511 5.94145 19.7857ZM25.0186 29.2048C24.575 29.2048 24.2138 28.8436 24.2138 28.4C24.2138 27.9564 24.575 27.5951 25.0186 27.5951C25.4622 27.5951 25.8235 27.9564 25.8235 28.4C25.8235 28.8442 25.4629 29.2048 25.0186 29.2048ZM20.1305 2.93383V1.39453C20.1305 1.17473 20.3091 0.996094 20.5289 0.996094C20.7487 0.996094 20.9273 1.17473 20.9273 1.39453V2.93383C20.9273 3.15363 20.7487 3.33227 20.5289 3.33227C20.3091 3.33227 20.1305 3.1543 20.1305 2.93383ZM15.8121 2.76516C15.7018 2.57457 15.7676 2.33086 15.9582 2.22062C16.1487 2.11039 16.3925 2.17613 16.5027 2.36672L17.2723 3.70016C17.3826 3.89074 17.3168 4.13445 17.1262 4.24469C17.0638 4.28055 16.9948 4.29781 16.9277 4.29781C16.7902 4.29781 16.6561 4.22609 16.5824 4.09859L15.8121 2.76516ZM12.612 5.56684C12.7222 5.37625 12.9659 5.31117 13.1565 5.42074L14.4899 6.19039C14.6805 6.30062 14.7456 6.54434 14.636 6.73492C14.5623 6.86242 14.4282 6.93414 14.2907 6.93414C14.223 6.93414 14.1546 6.91688 14.0921 6.88102L12.7587 6.11137C12.5668 6.00113 12.5017 5.75742 12.612 5.56684ZM11.3868 10.1382C11.3868 9.91844 11.5654 9.7398 11.7852 9.7398H13.3245C13.5443 9.7398 13.7229 9.91844 13.7229 10.1382C13.7229 10.358 13.5443 10.5367 13.3245 10.5367H11.7852C11.5654 10.5367 11.3868 10.358 11.3868 10.1382ZM23.7855 3.70016L24.5551 2.36672C24.6653 2.17613 24.9091 2.11105 25.0996 2.22062C25.2902 2.33086 25.3553 2.57457 25.2457 2.76516L24.4761 4.09859C24.4024 4.22609 24.2682 4.29781 24.1308 4.29781C24.063 4.29781 23.9946 4.28055 23.9322 4.24469C23.741 4.13445 23.6759 3.89074 23.7855 3.70016ZM28.2998 6.11137L26.9663 6.88102C26.9039 6.91688 26.8348 6.93414 26.7678 6.93414C26.6303 6.93414 26.4962 6.86242 26.4225 6.73492C26.3122 6.54434 26.378 6.30062 26.5686 6.19039L27.902 5.42074C28.0926 5.31117 28.3363 5.37625 28.4465 5.56684C28.5568 5.75742 28.4904 6.00113 28.2998 6.11137ZM29.6704 10.1382C29.6704 10.358 29.4918 10.5367 29.272 10.5367H27.7327C27.5129 10.5367 27.3342 10.358 27.3342 10.1382C27.3342 9.91844 27.5129 9.7398 27.7327 9.7398H29.272C29.4924 9.7398 29.6704 9.91777 29.6704 10.1382Z" fill="white"/>
</svg>
