<svg width="50" height="50" viewBox="0 0 50 50" fill="none" xmlns="http://www.w3.org/2000/svg">
<rect width="50" height="50" rx="5" fill="#00020F"/>
<rect x="0.5" y="0.5" width="49" height="49" rx="4.5" stroke="white" stroke-opacity="0.1"/>
<g clip-path="url(#clip0_55_1813)">
<path fill-rule="evenodd" clip-rule="evenodd" d="M37 37H32.2V28.6012C32.2 26.2972 31.1836 25.0117 29.3608 25.0117C27.3772 25.0117 26.2 26.3512 26.2 28.6012V37H21.4V21.4H26.2V23.1543C26.2 23.1543 27.706 20.5117 31.0996 20.5117C34.4944 20.5117 37 22.5833 37 26.8697V37ZM15.9304 18.9051C14.3116 18.9051 13 17.5828 13 15.952C13 14.3224 14.3116 13 15.9304 13C17.548 13 18.8596 14.3224 18.8596 15.952C18.8608 17.5828 17.548 18.9051 15.9304 18.9051ZM13 37H19V21.4H13V37Z" fill="white"/>
</g>
<defs>
<clipPath id="clip0_55_1813">
<rect width="24" height="24" fill="white" transform="translate(13 13)"/>
</clipPath>
</defs>
</svg>
