<svg width="35" height="34" viewBox="0 0 35 34" fill="none" xmlns="http://www.w3.org/2000/svg">
<g clip-path="url(#clip0_192_36580)">
<path d="M5.21124 19.1486C5.21124 19.4408 4.97212 19.6799 4.67987 19.6799C4.38762 19.6799 4.1485 19.4408 4.1485 19.1486C4.14186 17.0032 4.67323 14.9308 5.64962 13.0976C6.62602 11.2511 8.04743 9.64367 9.81424 8.44809C10.0534 8.28203 10.3855 8.34846 10.5515 8.58757C10.7176 8.82669 10.6512 9.1588 10.412 9.32485C8.79135 10.4208 7.48949 11.8954 6.59281 13.5891C5.70276 15.2762 5.21124 17.1759 5.21124 19.1419V19.1486Z" fill="#194EFF"/>
<path d="M23.3581 9.11237C23.1123 8.9596 23.0392 8.6275 23.192 8.38174C23.3448 8.13598 23.6769 8.06291 23.9226 8.21568C25.7359 9.35813 27.2039 10.9124 28.24 12.7124C29.2762 14.5257 29.874 16.5848 29.9404 18.7169C29.9471 19.0092 29.7212 19.2549 29.429 19.2616C29.1367 19.2682 28.891 19.0424 28.8843 18.7501C28.8245 16.7973 28.2732 14.9043 27.3168 13.2371C26.3669 11.5832 25.0252 10.1552 23.3581 9.10573V9.11237Z" fill="#194EFF"/>
<path d="M22.6216 29.5702C22.8806 29.4308 23.1994 29.5304 23.3389 29.7894C23.4784 30.0485 23.3788 30.3673 23.1197 30.5068C21.2931 31.4832 19.2939 31.9813 17.2879 32.0212C15.2687 32.0544 13.2429 31.6227 11.3964 30.7193C11.1307 30.5931 11.0244 30.2743 11.1506 30.0086C11.2768 29.7429 11.5956 29.6367 11.8613 29.7629C13.5617 30.5931 15.4149 30.9917 17.268 30.9584C19.1079 30.9252 20.9478 30.4669 22.6216 29.5702Z" fill="#194EFF"/>
<path d="M6.08204 29.7563V27.9895H3.82371V27.2323H6.08204V26.4552H3.82371V25.6515H5.68351L3.47168 21.7791H4.56099L6.14182 24.5887C6.32116 24.9076 6.46064 25.1865 6.55363 25.4256C6.63998 25.233 6.78611 24.9341 6.99866 24.5356L8.48649 21.7725H9.64887L7.44368 25.6448H9.30348V26.4485H7.05843V27.2257H9.30348V27.9829H7.05843V29.7497H6.0754L6.08204 29.7563Z" fill="#194EFF"/>
<path d="M17.0473 1.4873C19.0134 1.4873 20.7935 2.28436 22.0754 3.57294C23.364 4.86151 24.1611 6.6416 24.1611 8.60103C24.1611 10.5671 23.364 12.3472 22.0754 13.6291C20.7868 14.9177 19.0068 15.7148 17.0473 15.7148C15.0813 15.7148 13.3012 14.9177 12.0192 13.6291C10.7307 12.3406 9.93359 10.5605 9.93359 8.60103C9.93359 6.63496 10.7307 4.85487 12.0192 3.57294C13.3078 2.28436 15.0879 1.4873 17.0473 1.4873ZM21.3249 4.3235C20.2289 3.22754 18.7145 2.55005 17.0473 2.55005C15.3735 2.55005 13.8657 3.22754 12.7698 4.3235C11.6738 5.41945 10.9963 6.93386 10.9963 8.60103C10.9963 10.2749 11.6738 11.7826 12.7698 12.8786C13.8657 13.9745 15.3801 14.652 17.0473 14.652C18.7211 14.652 20.2289 13.9745 21.3249 12.8786C22.4208 11.7826 23.0983 10.2682 23.0983 8.60103C23.0983 6.92722 22.4208 5.41945 21.3249 4.3235Z" fill="#194EFF"/>
<path d="M7.16549 18.2852C9.13156 18.2852 10.9117 19.0822 12.1936 20.3708C13.4822 21.6594 14.2792 23.4395 14.2792 25.3989C14.2792 27.365 13.4822 29.1451 12.1936 30.427C10.905 31.7156 9.12492 32.5126 7.16549 32.5126C5.19941 32.5126 3.41932 31.7156 2.13739 30.427C0.848814 29.1384 0.0517578 27.3583 0.0517578 25.3989C0.0517578 23.4328 0.848814 21.6527 2.13739 20.3708C3.42596 19.0822 5.20606 18.2852 7.16549 18.2852ZM11.443 21.1213C10.3471 20.0254 8.83266 19.3479 7.16549 19.3479C5.49167 19.3479 3.9839 20.0254 2.88795 21.1213C1.792 22.2173 1.1145 23.7317 1.1145 25.3989C1.1145 27.0727 1.792 28.5805 2.88795 29.6764C3.9839 30.7724 5.49831 31.4499 7.16549 31.4499C8.83931 31.4499 10.3471 30.7724 11.443 29.6764C12.539 28.5805 13.2165 27.0661 13.2165 25.3989C13.2165 23.7251 12.539 22.2173 11.443 21.1213Z" fill="#194EFF"/>
<path d="M26.9379 17.7405C28.904 17.7405 30.6841 18.5375 31.966 19.8261C33.2546 21.1147 34.0517 22.8948 34.0517 24.8542C34.0517 26.8203 33.2546 28.6004 31.966 29.8823C30.6775 31.1709 28.8974 31.9679 26.9379 31.9679C24.9719 31.9679 23.1918 31.1709 21.9099 29.8823C20.6213 28.5937 19.8242 26.8136 19.8242 24.8542C19.8242 22.8881 20.6213 21.108 21.9099 19.8261C23.1984 18.5375 24.9785 17.7405 26.9379 17.7405ZM31.2155 20.5767C30.1195 19.4807 28.6051 18.8032 26.9379 18.8032C25.2641 18.8032 23.7564 19.4807 22.6604 20.5767C21.5645 21.6726 20.887 23.187 20.887 24.8542C20.887 26.528 21.5645 28.0358 22.6604 29.1317C23.7564 30.2277 25.2708 30.9052 26.9379 30.9052C28.6118 30.9052 30.1195 30.2277 31.2155 29.1317C32.3114 28.0358 32.9889 26.5214 32.9889 24.8542C32.9889 23.1804 32.3114 21.6726 31.2155 20.5767Z" fill="#194EFF"/>
<path d="M19.4204 9.94277C19.4204 10.255 19.3673 10.5339 19.2544 10.7863C19.1414 11.0387 18.9887 11.2513 18.7828 11.4306C18.5769 11.6099 18.3377 11.7561 18.0455 11.869C17.7599 11.9753 17.4411 12.0483 17.0957 12.0749L16.9828 13.2373C16.9761 13.2638 16.9695 13.2904 16.9562 13.3103C16.9429 13.3303 16.923 13.3502 16.8831 13.3635C16.8499 13.3768 16.8034 13.39 16.7436 13.3967C16.6839 13.4033 16.6108 13.41 16.5178 13.41C16.4049 13.41 16.3053 13.4033 16.2388 13.39C16.1658 13.3768 16.1126 13.3635 16.0728 13.3435C16.0329 13.3236 16.0064 13.2971 15.9931 13.2638C15.9798 13.2306 15.9731 13.1908 15.9864 13.1509L16.0993 12.0417C15.9399 12.0218 15.7938 11.9886 15.6543 11.9553C15.5148 11.9221 15.3953 11.8823 15.2757 11.8424C15.1628 11.8026 15.0632 11.7561 14.9835 11.7162C14.9038 11.6764 14.8373 11.6299 14.7975 11.59C14.7576 11.5502 14.7244 11.4837 14.7111 11.404C14.6912 11.3243 14.6846 11.1981 14.6846 11.0387C14.6846 10.9192 14.6912 10.8129 14.6979 10.7332C14.7045 10.6535 14.7178 10.5937 14.7377 10.5472C14.7576 10.5074 14.7776 10.4741 14.8041 10.4609C14.8307 10.4409 14.8639 10.4343 14.8971 10.4343C14.9436 10.4343 15.0167 10.4609 15.103 10.514C15.196 10.5671 15.3089 10.6269 15.4551 10.6933C15.5945 10.7598 15.7672 10.8195 15.9731 10.8727C16.1724 10.9258 16.4115 10.9524 16.6839 10.9524C17.109 10.9524 17.4278 10.8727 17.6337 10.7133C17.8396 10.5538 17.9459 10.3479 17.9459 10.0823C17.9459 9.90956 17.8994 9.76343 17.813 9.65052C17.7267 9.5376 17.6071 9.43797 17.4543 9.35162C17.3082 9.26527 17.1355 9.19221 16.9495 9.12579C16.7636 9.05937 16.5709 8.9863 16.3783 8.91324C16.1857 8.84018 15.9931 8.74719 15.8071 8.64755C15.6211 8.54792 15.4551 8.42172 15.3023 8.26895C15.1562 8.12283 15.0366 7.93685 14.9436 7.7243C14.8573 7.51175 14.8108 7.25271 14.8108 6.95381C14.8108 6.68148 14.8573 6.43572 14.9503 6.20989C15.0366 5.98406 15.1694 5.79143 15.3421 5.62538C15.5082 5.45933 15.7207 5.31984 15.9731 5.22021C16.2255 5.11394 16.5045 5.04751 16.8233 5.00766L16.9296 3.91171C16.9363 3.88514 16.9429 3.85857 16.9562 3.83865C16.9695 3.81872 16.996 3.79879 17.0292 3.78551C17.0625 3.76558 17.109 3.75894 17.1687 3.7523C17.2285 3.74566 17.3016 3.73901 17.3946 3.73901C17.5075 3.73901 17.6005 3.74566 17.6735 3.75894C17.7466 3.77222 17.8064 3.78551 17.8462 3.80544C17.8861 3.82536 17.9126 3.85193 17.9193 3.88514C17.9326 3.91835 17.9392 3.9582 17.9392 3.99806L17.8329 5.02759C17.9326 5.04087 18.0389 5.0608 18.1518 5.08737C18.2647 5.11394 18.371 5.1405 18.4706 5.17372C18.5702 5.20693 18.6566 5.24678 18.7363 5.28663C18.816 5.32648 18.8691 5.3597 18.9023 5.39291C18.9355 5.41947 18.9555 5.45269 18.9754 5.4859C18.9953 5.51911 19.002 5.55232 19.0152 5.59881C19.0219 5.64531 19.0285 5.69844 19.0352 5.76487C19.0418 5.83129 19.0418 5.89771 19.0418 5.98406C19.0418 6.09697 19.0418 6.18996 19.0352 6.26303C19.0285 6.33609 19.0152 6.38923 19.002 6.42908C18.9887 6.46893 18.9754 6.4955 18.9555 6.50214C18.9355 6.51543 18.9156 6.52207 18.889 6.52207C18.8425 6.52207 18.7695 6.50214 18.6831 6.44901C18.5901 6.40251 18.4772 6.34937 18.3444 6.29624C18.2115 6.2431 18.0588 6.18996 17.8861 6.14347C17.7134 6.09697 17.5274 6.0704 17.3149 6.0704C17.1289 6.0704 16.9628 6.09033 16.83 6.12354C16.6971 6.16339 16.5909 6.20989 16.5045 6.27631C16.4182 6.34273 16.3584 6.42244 16.3185 6.50879C16.2787 6.59513 16.2588 6.70141 16.2588 6.80768C16.2588 6.97374 16.3053 7.11986 16.3916 7.23942C16.4846 7.35898 16.6041 7.45197 16.7569 7.53832C16.9097 7.62466 17.0757 7.69773 17.2684 7.76415C17.461 7.83057 17.6536 7.90363 17.8529 7.98334C18.0521 8.0564 18.2448 8.14939 18.4374 8.24903C18.63 8.34866 18.7961 8.47486 18.9488 8.62099C19.095 8.76711 19.2212 8.94645 19.3075 9.15236C19.3938 9.35826 19.4403 9.61066 19.4403 9.90956L19.4204 9.94277Z" fill="#194EFF"/>
<path d="M26.0827 24.4359H27.7964V25.2396H26.2487C26.3152 25.399 26.355 25.5584 26.355 25.7178C26.355 26.0366 26.282 26.3687 26.1292 26.7208C25.9764 27.0728 25.7307 27.4315 25.3853 27.7968C25.6709 27.7171 25.9366 27.6772 26.169 27.6772C26.4679 27.6772 26.8133 27.7237 27.1853 27.8101C27.8096 27.9562 28.2347 28.0359 28.4539 28.0359C28.7196 28.0359 29.0716 27.9363 29.4967 27.7304L29.8156 28.627C29.4835 28.7665 29.2244 28.8595 29.0384 28.906C28.8591 28.9525 28.6731 28.9724 28.4938 28.9724C28.341 28.9724 28.1882 28.9592 28.0288 28.9326C27.9292 28.9127 27.6967 28.8462 27.3248 28.7333C26.9528 28.6204 26.7137 28.554 26.6008 28.5274C26.4347 28.5008 26.262 28.4876 26.0893 28.4876C25.8303 28.4876 25.5513 28.5341 25.2524 28.6204C24.9535 28.7134 24.6878 28.833 24.4421 28.9924L24.0635 28.0492C24.4155 27.8566 24.7078 27.5842 24.9535 27.2256C25.1993 26.8669 25.3188 26.4285 25.3188 25.9171C25.3188 25.6979 25.2856 25.472 25.2259 25.2396H24.1565V24.4359H24.9934C24.8738 24.0307 24.8008 23.7318 24.7675 23.5458C24.7343 23.3598 24.721 23.1738 24.721 22.9945C24.721 22.2373 25 21.6528 25.558 21.2277C26.0096 20.889 26.5543 20.7229 27.1919 20.7229C27.8495 20.7229 28.3942 20.9022 28.8192 21.2609C29.2443 21.6262 29.51 22.131 29.6097 22.782L28.6333 22.9281C28.5801 22.4964 28.4141 22.151 28.1484 21.8986C27.8761 21.6462 27.5506 21.52 27.1786 21.52C26.7735 21.52 26.4414 21.6528 26.1757 21.9118C25.91 22.1709 25.7771 22.4831 25.7771 22.8484C25.7771 23.2536 25.8834 23.7783 26.0893 24.4292L26.0827 24.4359Z" fill="#194EFF"/>
</g>
<defs>
<clipPath id="clip0_192_36580">
<rect width="34" height="34" fill="white" transform="translate(0.0517578)"/>
</clipPath>
</defs>
</svg>
