<svg width="35" height="32" viewBox="0 0 35 32" fill="none" xmlns="http://www.w3.org/2000/svg">
<path d="M5.21124 18.1486C5.21124 18.4408 4.97212 18.6799 4.67987 18.6799C4.38762 18.6799 4.1485 18.4408 4.1485 18.1486C4.14186 16.0032 4.67323 13.9308 5.64962 12.0976C6.62602 10.2511 8.04743 8.64367 9.81424 7.44809C10.0534 7.28203 10.3855 7.34846 10.5515 7.58757C10.7176 7.82669 10.6512 8.1588 10.412 8.32485C8.79135 9.4208 7.48949 10.8954 6.59281 12.5891C5.70276 14.2762 5.21124 16.1759 5.21124 18.1419V18.1486Z" fill="white"/>
<path d="M23.3581 8.11237C23.1123 7.9596 23.0392 7.6275 23.192 7.38174C23.3448 7.13598 23.6769 7.06291 23.9226 7.21568C25.7359 8.35813 27.2039 9.91239 28.24 11.7124C29.2762 13.5257 29.874 15.5848 29.9404 17.7169C29.9471 18.0092 29.7212 18.2549 29.429 18.2616C29.1367 18.2682 28.891 18.0424 28.8843 17.7501C28.8245 15.7973 28.2732 13.9043 27.3168 12.2371C26.3669 10.5832 25.0252 9.15519 23.3581 8.10573V8.11237Z" fill="white"/>
<path d="M22.6216 28.5702C22.8806 28.4308 23.1994 28.5304 23.3389 28.7894C23.4784 29.0485 23.3788 29.3673 23.1197 29.5068C21.2931 30.4832 19.2939 30.9813 17.2879 31.0212C15.2687 31.0544 13.2429 30.6227 11.3964 29.7193C11.1307 29.5931 11.0244 29.2743 11.1506 29.0086C11.2768 28.7429 11.5956 28.6367 11.8613 28.7629C13.5617 29.5931 15.4149 29.9917 17.268 29.9584C19.1079 29.9252 20.9478 29.4669 22.6216 28.5702Z" fill="white"/>
<path d="M6.08204 28.7563V26.9895H3.82371V26.2323H6.08204V25.4552H3.82371V24.6515H5.68351L3.47168 20.7791H4.56099L6.14182 23.5887C6.32116 23.9076 6.46064 24.1865 6.55363 24.4256C6.63998 24.233 6.78611 23.9341 6.99866 23.5356L8.48649 20.7725H9.64887L7.44368 24.6448H9.30348V25.4485H7.05843V26.2257H9.30348V26.9829H7.05843V28.7497H6.0754L6.08204 28.7563Z" fill="white"/>
<path d="M17.0473 0.487305C19.0134 0.487305 20.7935 1.28436 22.0754 2.57294C23.364 3.86151 24.1611 5.6416 24.1611 7.60103C24.1611 9.56711 23.364 11.3472 22.0754 12.6291C20.7868 13.9177 19.0068 14.7148 17.0473 14.7148C15.0813 14.7148 13.3012 13.9177 12.0192 12.6291C10.7307 11.3406 9.93359 9.56047 9.93359 7.60103C9.93359 5.63496 10.7307 3.85487 12.0192 2.57294C13.3078 1.28436 15.0879 0.487305 17.0473 0.487305ZM21.3249 3.3235C20.2289 2.22754 18.7145 1.55005 17.0473 1.55005C15.3735 1.55005 13.8657 2.22754 12.7698 3.3235C11.6738 4.41945 10.9963 5.93386 10.9963 7.60103C10.9963 9.27485 11.6738 10.7826 12.7698 11.8786C13.8657 12.9745 15.3801 13.652 17.0473 13.652C18.7211 13.652 20.2289 12.9745 21.3249 11.8786C22.4208 10.7826 23.0983 9.26821 23.0983 7.60103C23.0983 5.92722 22.4208 4.41945 21.3249 3.3235Z" fill="white"/>
<path d="M7.16549 17.2852C9.13156 17.2852 10.9117 18.0822 12.1936 19.3708C13.4822 20.6594 14.2792 22.4395 14.2792 24.3989C14.2792 26.365 13.4822 28.1451 12.1936 29.427C10.905 30.7156 9.12492 31.5126 7.16549 31.5126C5.19941 31.5126 3.41932 30.7156 2.13739 29.427C0.848814 28.1384 0.0517578 26.3583 0.0517578 24.3989C0.0517578 22.4328 0.848814 20.6527 2.13739 19.3708C3.42596 18.0822 5.20606 17.2852 7.16549 17.2852ZM11.443 20.1213C10.3471 19.0254 8.83266 18.3479 7.16549 18.3479C5.49167 18.3479 3.9839 19.0254 2.88795 20.1213C1.792 21.2173 1.1145 22.7317 1.1145 24.3989C1.1145 26.0727 1.792 27.5805 2.88795 28.6764C3.9839 29.7724 5.49831 30.4499 7.16549 30.4499C8.83931 30.4499 10.3471 29.7724 11.443 28.6764C12.539 27.5805 13.2165 26.0661 13.2165 24.3989C13.2165 22.7251 12.539 21.2173 11.443 20.1213Z" fill="white"/>
<path d="M26.9379 16.7405C28.904 16.7405 30.6841 17.5375 31.966 18.8261C33.2546 20.1147 34.0517 21.8948 34.0517 23.8542C34.0517 25.8203 33.2546 27.6004 31.966 28.8823C30.6775 30.1709 28.8974 30.9679 26.9379 30.9679C24.9719 30.9679 23.1918 30.1709 21.9099 28.8823C20.6213 27.5937 19.8242 25.8136 19.8242 23.8542C19.8242 21.8881 20.6213 20.108 21.9099 18.8261C23.1984 17.5375 24.9785 16.7405 26.9379 16.7405ZM31.2155 19.5767C30.1195 18.4807 28.6051 17.8032 26.9379 17.8032C25.2641 17.8032 23.7564 18.4807 22.6604 19.5767C21.5645 20.6726 20.887 22.187 20.887 23.8542C20.887 25.528 21.5645 27.0358 22.6604 28.1317C23.7564 29.2277 25.2708 29.9052 26.9379 29.9052C28.6118 29.9052 30.1195 29.2277 31.2155 28.1317C32.3114 27.0358 32.9889 25.5214 32.9889 23.8542C32.9889 22.1804 32.3114 20.6726 31.2155 19.5767Z" fill="white"/>
<path d="M19.4204 8.94277C19.4204 9.25495 19.3673 9.53392 19.2544 9.78632C19.1414 10.0387 18.9887 10.2513 18.7828 10.4306C18.5769 10.6099 18.3377 10.7561 18.0455 10.869C17.7599 10.9753 17.4411 11.0483 17.0957 11.0749L16.9828 12.2373C16.9761 12.2638 16.9695 12.2904 16.9562 12.3103C16.9429 12.3303 16.923 12.3502 16.8831 12.3635C16.8499 12.3768 16.8034 12.39 16.7436 12.3967C16.6839 12.4033 16.6108 12.41 16.5178 12.41C16.4049 12.41 16.3053 12.4033 16.2388 12.39C16.1658 12.3768 16.1126 12.3635 16.0728 12.3435C16.0329 12.3236 16.0064 12.2971 15.9931 12.2638C15.9798 12.2306 15.9731 12.1908 15.9864 12.1509L16.0993 11.0417C15.9399 11.0218 15.7938 10.9886 15.6543 10.9553C15.5148 10.9221 15.3953 10.8823 15.2757 10.8424C15.1628 10.8026 15.0632 10.7561 14.9835 10.7162C14.9038 10.6764 14.8373 10.6299 14.7975 10.59C14.7576 10.5502 14.7244 10.4837 14.7111 10.404C14.6912 10.3243 14.6846 10.1981 14.6846 10.0387C14.6846 9.91917 14.6912 9.81289 14.6979 9.73319C14.7045 9.65348 14.7178 9.5937 14.7377 9.54721C14.7576 9.50735 14.7776 9.47414 14.8041 9.46086C14.8307 9.44093 14.8639 9.43429 14.8971 9.43429C14.9436 9.43429 15.0167 9.46086 15.103 9.514C15.196 9.56713 15.3089 9.62691 15.4551 9.69333C15.5945 9.75975 15.7672 9.81953 15.9731 9.87267C16.1724 9.92581 16.4115 9.95238 16.6839 9.95238C17.109 9.95238 17.4278 9.87267 17.6337 9.71326C17.8396 9.55385 17.9459 9.34794 17.9459 9.08226C17.9459 8.90956 17.8994 8.76343 17.813 8.65052C17.7267 8.5376 17.6071 8.43797 17.4543 8.35162C17.3082 8.26527 17.1355 8.19221 16.9495 8.12579C16.7636 8.05937 16.5709 7.9863 16.3783 7.91324C16.1857 7.84018 15.9931 7.74719 15.8071 7.64755C15.6211 7.54792 15.4551 7.42172 15.3023 7.26895C15.1562 7.12283 15.0366 6.93685 14.9436 6.7243C14.8573 6.51175 14.8108 6.25271 14.8108 5.95381C14.8108 5.68148 14.8573 5.43572 14.9503 5.20989C15.0366 4.98406 15.1694 4.79143 15.3421 4.62538C15.5082 4.45933 15.7207 4.31984 15.9731 4.22021C16.2255 4.11394 16.5045 4.04751 16.8233 4.00766L16.9296 2.91171C16.9363 2.88514 16.9429 2.85857 16.9562 2.83865C16.9695 2.81872 16.996 2.79879 17.0292 2.78551C17.0625 2.76558 17.109 2.75894 17.1687 2.7523C17.2285 2.74566 17.3016 2.73901 17.3946 2.73901C17.5075 2.73901 17.6005 2.74566 17.6735 2.75894C17.7466 2.77222 17.8064 2.78551 17.8462 2.80544C17.8861 2.82536 17.9126 2.85193 17.9193 2.88514C17.9326 2.91835 17.9392 2.9582 17.9392 2.99806L17.8329 4.02759C17.9326 4.04087 18.0389 4.0608 18.1518 4.08737C18.2647 4.11394 18.371 4.1405 18.4706 4.17372C18.5702 4.20693 18.6566 4.24678 18.7363 4.28663C18.816 4.32648 18.8691 4.3597 18.9023 4.39291C18.9355 4.41947 18.9555 4.45269 18.9754 4.4859C18.9953 4.51911 19.002 4.55232 19.0152 4.59881C19.0219 4.64531 19.0285 4.69844 19.0352 4.76487C19.0418 4.83129 19.0418 4.89771 19.0418 4.98406C19.0418 5.09697 19.0418 5.18996 19.0352 5.26303C19.0285 5.33609 19.0152 5.38923 19.002 5.42908C18.9887 5.46893 18.9754 5.4955 18.9555 5.50214C18.9355 5.51543 18.9156 5.52207 18.889 5.52207C18.8425 5.52207 18.7695 5.50214 18.6831 5.44901C18.5901 5.40251 18.4772 5.34937 18.3444 5.29624C18.2115 5.2431 18.0588 5.18996 17.8861 5.14347C17.7134 5.09697 17.5274 5.0704 17.3149 5.0704C17.1289 5.0704 16.9628 5.09033 16.83 5.12354C16.6971 5.16339 16.5909 5.20989 16.5045 5.27631C16.4182 5.34273 16.3584 5.42244 16.3185 5.50879C16.2787 5.59513 16.2588 5.70141 16.2588 5.80768C16.2588 5.97374 16.3053 6.11986 16.3916 6.23942C16.4846 6.35898 16.6041 6.45197 16.7569 6.53832C16.9097 6.62466 17.0757 6.69773 17.2684 6.76415C17.461 6.83057 17.6536 6.90363 17.8529 6.98334C18.0521 7.0564 18.2448 7.14939 18.4374 7.24903C18.63 7.34866 18.7961 7.47486 18.9488 7.62099C19.095 7.76711 19.2212 7.94645 19.3075 8.15236C19.3938 8.35826 19.4403 8.61066 19.4403 8.90956L19.4204 8.94277Z" fill="white"/>
<path d="M26.0827 23.4359H27.7964V24.2396H26.2487C26.3152 24.399 26.355 24.5584 26.355 24.7178C26.355 25.0366 26.282 25.3687 26.1292 25.7208C25.9764 26.0728 25.7307 26.4315 25.3853 26.7968C25.6709 26.7171 25.9366 26.6772 26.169 26.6772C26.4679 26.6772 26.8133 26.7237 27.1853 26.8101C27.8096 26.9562 28.2347 27.0359 28.4539 27.0359C28.7196 27.0359 29.0716 26.9363 29.4967 26.7304L29.8156 27.627C29.4835 27.7665 29.2244 27.8595 29.0384 27.906C28.8591 27.9525 28.6731 27.9724 28.4938 27.9724C28.341 27.9724 28.1882 27.9592 28.0288 27.9326C27.9292 27.9127 27.6967 27.8462 27.3248 27.7333C26.9528 27.6204 26.7137 27.554 26.6008 27.5274C26.4347 27.5008 26.262 27.4876 26.0893 27.4876C25.8303 27.4876 25.5513 27.5341 25.2524 27.6204C24.9535 27.7134 24.6878 27.833 24.4421 27.9924L24.0635 27.0492C24.4155 26.8566 24.7078 26.5842 24.9535 26.2256C25.1993 25.8669 25.3188 25.4285 25.3188 24.9171C25.3188 24.6979 25.2856 24.472 25.2259 24.2396H24.1565V23.4359H24.9934C24.8738 23.0307 24.8008 22.7318 24.7675 22.5458C24.7343 22.3598 24.721 22.1738 24.721 21.9945C24.721 21.2373 25 20.6528 25.558 20.2277C26.0096 19.889 26.5543 19.7229 27.1919 19.7229C27.8495 19.7229 28.3942 19.9022 28.8192 20.2609C29.2443 20.6262 29.51 21.131 29.6097 21.782L28.6333 21.9281C28.5801 21.4964 28.4141 21.151 28.1484 20.8986C27.8761 20.6462 27.5506 20.52 27.1786 20.52C26.7735 20.52 26.4414 20.6528 26.1757 20.9118C25.91 21.1709 25.7771 21.4831 25.7771 21.8484C25.7771 22.2536 25.8834 22.7783 26.0893 23.4292L26.0827 23.4359Z" fill="white"/>
</svg>
