<svg width="34" height="34" viewBox="0 0 34 34" fill="none" xmlns="http://www.w3.org/2000/svg">
<rect x="0.5" y="0.5" width="33" height="33" rx="4.5" stroke="white"/>
<path fill-rule="evenodd" clip-rule="evenodd" d="M9.98794 10.5557C10.9948 9.49682 11.3507 9.19984 11.7798 9.06163C12.0767 8.98395 12.3881 8.97964 12.6871 9.04906C13.0807 9.16329 13.1848 9.2501 14.4755 10.534C15.6094 11.6614 15.7227 11.7836 15.8314 12.004C16.0393 12.391 16.0717 12.8482 15.9206 13.2605C15.8062 13.5746 15.6437 13.7825 14.956 14.4713L14.5075 14.9203C14.3898 15.0397 14.3621 15.2211 14.4389 15.3703C15.4355 17.0674 16.8492 18.4828 18.5465 19.4824C18.742 19.5868 18.9826 19.5531 19.1415 19.399L19.5729 18.9752C19.8395 18.7023 20.1219 18.4453 20.4185 18.2054C20.8844 17.9198 21.4648 17.8943 21.954 18.138C22.1931 18.2522 22.2721 18.323 23.4415 19.4881C24.6474 20.6886 24.6818 20.7263 24.8145 21.0016C25.0643 21.4572 25.0616 22.0091 24.8076 22.4625C24.6783 22.7184 24.5994 22.8109 23.9209 23.5031C23.5112 23.9211 23.1257 24.3027 23.0639 24.3586C22.5041 24.8212 21.786 25.0482 21.0615 24.9914C19.7361 24.8708 18.4531 24.4618 17.3028 23.7932C14.7549 22.4455 12.5857 20.482 10.9937 18.082C10.6469 17.5796 10.3386 17.0519 10.0715 16.5034C9.35471 15.277 8.98459 13.8795 9.00049 12.4598C9.05521 11.7171 9.412 11.0291 9.98794 10.5557Z" stroke="white" stroke-linecap="round" stroke-linejoin="round"/>
</svg>
