<svg width="35" height="34" viewBox="0 0 35 34" fill="none" xmlns="http://www.w3.org/2000/svg">
<path d="M32.9844 8.74706V5.34069C32.9833 4.8451 32.7856 4.3702 32.4347 4.02021C32.0838 3.67022 31.6084 3.47374 31.1128 3.47388H12.3693C12.3661 3.47388 12.3629 3.47388 12.3592 3.47388C12.3554 3.47388 12.3528 3.47388 12.3491 3.47388H4.34631C3.85067 3.47373 3.37521 3.6702 3.02424 4.02017C2.67327 4.37015 2.47546 4.84505 2.47419 5.34069V20.8829C1.49853 22.0553 1.01639 23.5607 1.12948 25.0817C1.24257 26.6027 1.94205 28.0203 3.08035 29.0355C4.21865 30.0506 5.70676 30.5839 7.23074 30.5229C8.75472 30.4618 10.1954 29.8112 11.2488 28.7083H31.1128C31.6085 28.7084 32.084 28.5118 32.4349 28.1617C32.7858 27.8116 32.9834 27.3366 32.9844 26.8409V8.7986C32.9844 8.78956 32.9897 8.78213 32.9897 8.7731C32.9897 8.76406 32.9849 8.7561 32.9844 8.74706ZM31.9219 5.34069V8.24185H12.8904V4.53638H31.1123C31.3263 4.53581 31.5317 4.6202 31.6835 4.77101C31.8353 4.92182 31.9211 5.12671 31.9219 5.34069ZM4.34631 4.53638H11.8279V8.24185H3.53669V5.34069C3.53767 5.12676 3.62346 4.92194 3.77523 4.77116C3.92701 4.62039 4.13238 4.53595 4.34631 4.53638ZM7.00256 29.4658C6.0482 29.4658 5.11527 29.1828 4.32175 28.6526C3.52822 28.1224 2.90975 27.3688 2.54453 26.487C2.17931 25.6053 2.08375 24.6351 2.26994 23.6991C2.45613 22.7631 2.9157 21.9033 3.59053 21.2284C4.26537 20.5536 5.12516 20.094 6.06119 19.9078C6.99721 19.7217 7.96743 19.8172 8.84914 20.1824C9.73086 20.5477 10.4845 21.1661 11.0147 21.9597C11.5449 22.7532 11.8279 23.6861 11.8279 24.6405C11.8265 25.9198 11.3177 27.1463 10.413 28.0509C9.50842 28.9556 8.28189 29.4644 7.00256 29.4658ZM31.1128 27.6458H12.0585C12.7846 26.434 13.0486 25.0007 12.8017 23.6097C12.5548 22.2188 11.8138 20.9638 10.7149 20.076L13.8222 16.4289C14.1493 16.5855 14.5134 16.6485 14.8741 16.611C15.2348 16.5735 15.578 16.4369 15.8659 16.2164L19.1241 18.7532C19.0375 19.0595 19.025 19.382 19.0877 19.6941C19.1503 20.0062 19.2862 20.2989 19.4843 20.5482C19.6823 20.7974 19.9368 20.9959 20.2267 21.1274C20.5166 21.2589 20.8336 21.3196 21.1515 21.3044C21.4695 21.2893 21.7793 21.1988 22.0554 21.0403C22.3315 20.8818 22.5659 20.66 22.7394 20.3931C22.9128 20.1262 23.0203 19.8219 23.053 19.5052C23.0857 19.1886 23.0426 18.8687 22.9273 18.572L27.6241 13.6569C27.9152 13.819 28.2424 13.9053 28.5756 13.9076C28.9733 13.9078 29.3622 13.79 29.693 13.5692C30.0237 13.3483 30.2816 13.0343 30.4338 12.6668C30.586 12.2993 30.6258 11.895 30.5482 11.5049C30.4705 11.1148 30.2789 10.7565 29.9975 10.4754C29.7162 10.1942 29.3577 10.0029 28.9676 9.92551C28.5774 9.84816 28.1731 9.88828 27.8057 10.0408C27.4384 10.1933 27.1246 10.4514 26.9039 10.7824C26.6833 11.1133 26.5659 11.5023 26.5664 11.9C26.5681 12.2616 26.6684 12.6159 26.8564 12.9248L22.2845 17.7093C21.9081 17.4086 21.4349 17.2555 20.9537 17.2786C20.4725 17.3016 20.0162 17.4993 19.6702 17.8346L16.5242 15.3856C16.6583 15.064 16.7065 14.7131 16.6642 14.3673C16.6218 14.0214 16.4903 13.6925 16.2825 13.4129C16.0748 13.1332 15.7978 12.9123 15.479 12.7719C15.1601 12.6315 14.8102 12.5763 14.4636 12.6119C14.117 12.6475 13.7856 12.7725 13.5019 12.9748C13.2182 13.177 12.9919 13.4496 12.8453 13.7656C12.6987 14.0817 12.6367 14.4304 12.6655 14.7776C12.6942 15.1249 12.8128 15.4587 13.0094 15.7463L9.82722 19.4778C8.84816 18.9395 7.73558 18.6925 6.62072 18.7658C5.50586 18.8391 4.43522 19.2297 3.5351 19.8916V9.30435H31.9219V26.8409C31.9211 27.0548 31.8354 27.2597 31.6837 27.4106C31.5321 27.5615 31.3267 27.646 31.1128 27.6458ZM14.669 15.5598C14.4816 15.5596 14.2985 15.5038 14.1427 15.3995C13.987 15.2952 13.8657 15.1471 13.7941 14.9739C13.7226 14.8007 13.704 14.6101 13.7407 14.4263C13.7775 14.2425 13.8679 14.0738 14.0005 13.9413C14.1331 13.8089 14.3021 13.7188 14.4859 13.6824C14.6698 13.646 14.8603 13.6649 15.0334 13.7367C15.2065 13.8086 15.3544 13.9301 15.4585 14.086C15.5625 14.2419 15.618 14.4252 15.6178 14.6126C15.6176 14.864 15.5175 15.105 15.3395 15.2826C15.1616 15.4603 14.9204 15.56 14.669 15.5598ZM22.0003 19.2844C22.0003 19.4719 21.9447 19.6551 21.8405 19.811C21.7364 19.9669 21.5883 20.0883 21.4151 20.1601C21.2419 20.2318 21.0513 20.2505 20.8674 20.2139C20.6836 20.1773 20.5147 20.087 20.3822 19.9544C20.2497 19.8218 20.1594 19.6529 20.1229 19.469C20.0864 19.2851 20.1053 19.0945 20.1771 18.9214C20.2489 18.7482 20.3705 18.6002 20.5264 18.4961C20.6823 18.392 20.8656 18.3366 21.0531 18.3367C21.3044 18.3368 21.5454 18.4367 21.7231 18.6144C21.9008 18.7921 22.0001 19.0331 22.0003 19.2844ZM27.6289 11.9C27.6288 11.7125 27.6843 11.5292 27.7884 11.3733C27.8925 11.2174 28.0405 11.0958 28.2137 11.024C28.3869 10.9522 28.5775 10.9334 28.7614 10.9699C28.9453 11.0065 29.1142 11.0968 29.2468 11.2293C29.3794 11.3619 29.4696 11.5308 29.5062 11.7147C29.5427 11.8986 29.5239 12.0892 29.4521 12.2624C29.3803 12.4356 29.2588 12.5836 29.1028 12.6877C28.9469 12.7918 28.7636 12.8474 28.5761 12.8473C28.325 12.8468 28.0843 12.7469 27.9068 12.5694C27.7292 12.3918 27.6293 12.1511 27.6289 11.9Z" fill="#194EFF"/>
<path d="M5.0193 6.68854C5.12 6.7873 5.25543 6.84263 5.39648 6.84263C5.53754 6.84263 5.67297 6.7873 5.77367 6.68854C5.82216 6.63705 5.86167 6.57779 5.89055 6.51322C5.94015 6.38321 5.94015 6.23949 5.89055 6.10947C5.85974 6.046 5.82042 5.98702 5.77367 5.93416L5.69398 5.87041C5.6645 5.85008 5.63231 5.83399 5.59836 5.8226C5.56818 5.80732 5.53598 5.79641 5.50273 5.79019C5.39916 5.76864 5.29144 5.77997 5.19461 5.8226C5.13025 5.84955 5.07097 5.88728 5.0193 5.93416C4.92222 6.03597 4.86719 6.17069 4.86523 6.31135C4.86607 6.38077 4.88051 6.44936 4.90773 6.51322C4.93468 6.57758 4.97241 6.63687 5.0193 6.68854Z" fill="#194EFF"/>
<path d="M7.16008 6.68848C7.26078 6.78725 7.39621 6.84257 7.53726 6.84257C7.67832 6.84257 7.81375 6.78725 7.91445 6.68848C7.96134 6.63681 7.99906 6.57752 8.02601 6.51317C8.05324 6.4493 8.06767 6.38071 8.06851 6.31129C8.06656 6.17064 8.01153 6.03591 7.91445 5.9341C7.86278 5.88722 7.80349 5.84949 7.73914 5.82254C7.64239 5.78186 7.53576 5.77074 7.43271 5.7906C7.32965 5.81045 7.23478 5.86039 7.16008 5.9341C7.11319 5.98577 7.07546 6.04506 7.04851 6.10942C7.01874 6.17245 7.00418 6.2416 7.00601 6.31129C7.00497 6.38038 7.01761 6.44899 7.0432 6.51317C7.07078 6.57844 7.11043 6.63792 7.16008 6.68848Z" fill="#194EFF"/>
<path d="M9.30056 6.68855C9.35058 6.7364 9.40798 6.77586 9.47056 6.80543C9.60241 6.855 9.74778 6.855 9.87963 6.80543C9.94221 6.77586 9.99961 6.7364 10.0496 6.68855C10.1492 6.58794 10.2063 6.45289 10.209 6.31137C10.2075 6.16957 10.1503 6.03406 10.0496 5.93418C10.0008 5.88626 9.94302 5.84837 9.87963 5.82262C9.8153 5.79374 9.7456 5.77881 9.67509 5.77881C9.60459 5.77881 9.53488 5.79374 9.47056 5.82262C9.40717 5.84837 9.34942 5.88626 9.30056 5.93418C9.25207 5.98567 9.21257 6.04493 9.18369 6.10949C9.13408 6.2395 9.13408 6.38323 9.18369 6.51324C9.21257 6.5778 9.25207 6.63707 9.30056 6.68855Z" fill="#194EFF"/>
<path d="M29.1491 21.2437H26.3643C26.2234 21.2437 26.0882 21.2996 25.9886 21.3993C25.889 21.4989 25.833 21.634 25.833 21.7749C25.833 21.9158 25.889 22.0509 25.9886 22.1506C26.0882 22.2502 26.2234 22.3062 26.3643 22.3062H29.1491C29.29 22.3062 29.4251 22.2502 29.5247 22.1506C29.6244 22.0509 29.6803 21.9158 29.6803 21.7749C29.6803 21.634 29.6244 21.4989 29.5247 21.3993C29.4251 21.2996 29.29 21.2437 29.1491 21.2437Z" fill="#194EFF"/>
<path d="M29.1488 23.2751H21.6465C21.5056 23.2751 21.3705 23.3311 21.2708 23.4307C21.1712 23.5304 21.1152 23.6655 21.1152 23.8064C21.1152 23.9473 21.1712 24.0824 21.2708 24.182C21.3705 24.2817 21.5056 24.3376 21.6465 24.3376H29.1488C29.2897 24.3376 29.4248 24.2817 29.5244 24.182C29.6241 24.0824 29.68 23.9473 29.68 23.8064C29.68 23.6655 29.6241 23.5304 29.5244 23.4307C29.4248 23.3311 29.2897 23.2751 29.1488 23.2751Z" fill="#194EFF"/>
<path d="M29.1485 25.3066H24.7588C24.6179 25.3066 24.4828 25.3626 24.3831 25.4622C24.2835 25.5619 24.2275 25.697 24.2275 25.8379C24.2275 25.9788 24.2835 26.1139 24.3831 26.2135C24.4828 26.3132 24.6179 26.3691 24.7588 26.3691H29.1485C29.2894 26.3691 29.4245 26.3132 29.5242 26.2135C29.6238 26.1139 29.6798 25.9788 29.6798 25.8379C29.6798 25.697 29.6238 25.5619 29.5242 25.4622C29.4245 25.3626 29.2894 25.3066 29.1485 25.3066Z" fill="#194EFF"/>
<path d="M7.5332 24.4205V21.9624C7.5332 21.8215 7.47723 21.6864 7.3776 21.5868C7.27797 21.4871 7.14285 21.4312 7.00195 21.4312C6.86106 21.4312 6.72593 21.4871 6.6263 21.5868C6.52667 21.6864 6.4707 21.8215 6.4707 21.9624V24.6404C6.47073 24.7813 6.52672 24.9164 6.62636 25.016L8.39223 26.784C8.49206 26.8839 8.62745 26.9399 8.76863 26.9399C8.9098 26.9399 9.04519 26.8839 9.14502 26.784C9.24484 26.6842 9.30092 26.5488 9.30092 26.4076C9.30092 26.2665 9.24484 26.1311 9.14502 26.0312L7.5332 24.4205Z" fill="#194EFF"/>
</svg>
