<svg width="35" height="34" viewBox="0 0 35 34" fill="none" xmlns="http://www.w3.org/2000/svg">
<g clip-path="url(#clip0_192_36351)">
<path d="M11.2511 10.4926C11.01 10.4926 10.8146 10.2972 10.8146 10.0561V7.57426C10.8146 6.70913 10.1108 6.0053 9.24565 6.0053C8.38052 6.0053 7.67668 6.70913 7.67668 7.57426V10.0561C7.67668 10.2972 7.48129 10.4926 7.2402 10.4926C6.99911 10.4926 6.80371 10.2972 6.80371 10.0561V7.57426C6.80371 6.22763 7.89919 5.13232 9.24565 5.13232C10.5921 5.13232 11.6876 6.22763 11.6876 7.57426V10.0561C11.6876 10.2972 11.4922 10.4926 11.2511 10.4926Z" fill="white"/>
<path d="M11.5891 16.8465H6.90318C6.00565 16.8465 5.27539 16.1161 5.27539 15.2186V11.2476C5.27539 10.3501 6.00565 9.61963 6.90318 9.61963H11.5891C12.4868 9.61963 13.2171 10.3501 13.2171 11.2476V15.2186C13.2171 16.1161 12.4868 16.8465 11.5891 16.8465ZM6.90318 10.4926C6.48698 10.4926 6.14836 10.8312 6.14836 11.2476V15.2186C6.14836 15.635 6.48698 15.9736 6.90318 15.9736H11.5891C12.0055 15.9736 12.3441 15.635 12.3441 15.2186V11.2476C12.3441 10.8312 12.0055 10.4926 11.5891 10.4926H6.90318Z" fill="white"/>
<path d="M9.24551 13.5579C8.81175 13.5579 8.45898 13.2053 8.45898 12.7716C8.45898 12.3378 8.81175 11.9849 9.24551 11.9849C9.6791 11.9849 10.0319 12.3378 10.0319 12.7716C10.0319 13.2053 9.6791 13.5579 9.24551 13.5579ZM9.24551 12.6849C9.19777 12.6849 9.1589 12.7238 9.1589 12.7716C9.1589 12.867 9.33196 12.867 9.33196 12.7716C9.33196 12.7238 9.29325 12.6849 9.24551 12.6849Z" fill="white"/>
<path d="M9.24606 14.4809C9.00497 14.4809 8.80957 14.2855 8.80957 14.0444V13.1213C8.80957 12.8802 9.00497 12.6848 9.24606 12.6848C9.48715 12.6848 9.68254 12.8802 9.68254 13.1213V14.0444C9.68254 14.2855 9.48715 14.4809 9.24606 14.4809Z" fill="white"/>
<path d="M23.8606 6.74163H22.833C22.5919 6.74163 22.3965 6.54623 22.3965 6.30514C22.3965 6.06405 22.5919 5.86865 22.833 5.86865H23.8606C24.1017 5.86865 24.2971 6.06405 24.2971 6.30514C24.2971 6.54623 24.1017 6.74163 23.8606 6.74163Z" fill="white"/>
<path d="M20.5212 6.74163H15.3545C15.1134 6.74163 14.918 6.54623 14.918 6.30514C14.918 6.06405 15.1134 5.86865 15.3545 5.86865H20.5212C20.7623 5.86865 20.9577 6.06405 20.9577 6.30514C20.9577 6.54623 20.7623 6.74163 20.5212 6.74163Z" fill="white"/>
<path d="M23.8608 9.56755H15.3545C15.1134 9.56755 14.918 9.37216 14.918 9.13107C14.918 8.88998 15.1134 8.69458 15.3545 8.69458H23.8608C24.1019 8.69458 24.2973 8.88998 24.2973 9.13107C24.2973 9.37216 24.1019 9.56755 23.8608 9.56755Z" fill="white"/>
<path d="M23.8608 12.3935H18.6679C18.4268 12.3935 18.2314 12.1981 18.2314 11.957C18.2314 11.7159 18.4268 11.5205 18.6679 11.5205H23.8608C24.1018 11.5205 24.2972 11.7159 24.2972 11.957C24.2972 12.1981 24.1018 12.3935 23.8608 12.3935Z" fill="white"/>
<path d="M16.771 12.3935H15.3545C15.1134 12.3935 14.918 12.1981 14.918 11.957C14.918 11.7159 15.1134 11.5205 15.3545 11.5205H16.771C17.0121 11.5205 17.2075 11.7159 17.2075 11.957C17.2075 12.1981 17.0121 12.3935 16.771 12.3935Z" fill="white"/>
<path d="M20.5212 15.2192H15.3545C15.1134 15.2192 14.918 15.0238 14.918 14.7827C14.918 14.5416 15.1134 14.3462 15.3545 14.3462H20.5212C20.7623 14.3462 20.9577 14.5416 20.9577 14.7827C20.9577 15.0238 20.7623 15.2192 20.5212 15.2192Z" fill="white"/>
<path d="M22.9722 30.6166H6.60055C6.35946 30.6166 6.16406 30.4212 6.16406 30.1801V29.5752C6.16406 28.4696 7.06346 27.5701 8.169 27.5701H21.4037C22.5093 27.5701 23.4087 28.4696 23.4087 29.5752V30.1801C23.4087 30.4212 23.2133 30.6166 22.9722 30.6166ZM7.03703 29.7436H22.5357V29.5752C22.5357 28.9508 22.028 28.443 21.4037 28.443H8.169C7.54479 28.443 7.03703 28.9508 7.03703 29.5752V29.7436Z" fill="white"/>
<path d="M18.2176 22.7763H3.24799C1.95405 22.7763 0.901367 21.7236 0.901367 20.4299V5.40075C0.901367 4.10664 1.95405 3.05396 3.24799 3.05396H26.3259C27.6178 3.05396 28.6689 4.10664 28.6689 5.40075V14.3852C28.6689 14.6263 28.4735 14.8217 28.2324 14.8217C27.9913 14.8217 27.7959 14.6263 27.7959 14.3852V5.40075C27.7959 4.58814 27.1364 3.92693 26.3259 3.92693H3.24799C2.43538 3.92693 1.77434 4.58814 1.77434 5.40075V20.4299C1.77434 21.2425 2.43538 21.9034 3.24799 21.9034H18.2176C18.4587 21.9034 18.6541 22.0987 18.6541 22.3398C18.6541 22.5809 18.4587 22.7763 18.2176 22.7763Z" fill="white"/>
<path d="M18.2106 18.9247H1.33785C1.09676 18.9247 0.901367 18.7293 0.901367 18.4882C0.901367 18.2472 1.09676 18.0518 1.33785 18.0518H18.2106C18.4517 18.0518 18.6471 18.2472 18.6471 18.4882C18.6471 18.7293 18.4517 18.9247 18.2106 18.9247Z" fill="white"/>
<path d="M16.0564 20.8495H13.5156C13.2745 20.8495 13.0791 20.6541 13.0791 20.413C13.0791 20.172 13.2745 19.9766 13.5156 19.9766H16.0564C16.2975 19.9766 16.4929 20.172 16.4929 20.413C16.4929 20.6541 16.2975 20.8495 16.0564 20.8495Z" fill="white"/>
<path d="M26.5363 30.946C26.5008 30.946 26.4653 30.9416 26.4307 30.933C25.6895 30.7485 24.9859 30.485 24.3393 30.1494C21.6244 28.74 19.8701 25.5605 19.8701 22.0485V16.8018C19.8701 16.6715 19.9283 16.5481 20.0287 16.4652C20.1291 16.382 20.2607 16.3486 20.3893 16.3731C20.9593 16.4833 21.5625 16.5389 22.1826 16.5389C23.8764 16.5389 25.4387 16.1218 26.2599 15.45C26.4208 15.3184 26.6517 15.3184 26.8126 15.45C27.6338 16.1218 29.1959 16.5389 30.8897 16.5389C31.5098 16.5389 32.1131 16.4833 32.683 16.3731C32.8109 16.3486 32.9431 16.382 33.0437 16.4652C33.1441 16.5481 33.2022 16.6715 33.2022 16.8018V22.0485C33.2022 25.5605 31.4479 28.74 28.733 30.1494C28.0868 30.4846 27.3833 30.7482 26.6418 30.933C26.6072 30.9416 26.5717 30.946 26.5363 30.946ZM20.7431 17.3157V22.0485C20.7431 25.2382 22.3126 28.1139 24.7414 29.3746C25.2967 29.6628 25.9001 29.8926 26.5363 30.059C27.1726 29.8926 27.776 29.6624 28.331 29.3746C30.7598 28.1139 32.3293 25.2382 32.3293 22.0485V17.3157C31.8628 17.3794 31.3806 17.4118 30.8897 17.4118C29.1434 17.4118 27.5499 17.0118 26.5363 16.3305C25.5226 17.0118 23.9291 17.4118 22.1826 17.4118C21.6918 17.4118 21.2096 17.3794 20.7431 17.3157Z" fill="white"/>
<path d="M26.5361 27.3117C24.2696 27.3117 22.4258 25.4679 22.4258 23.2012C22.4258 20.9349 24.2696 19.0911 26.5361 19.0911C27.0652 19.0911 27.5847 19.192 28.0802 19.3911C28.3039 19.4812 28.4123 19.7356 28.3223 19.9589C28.2326 20.183 27.9777 20.2911 27.7545 20.2014C27.363 20.0438 26.9531 19.964 26.5361 19.964C24.7511 19.964 23.2988 21.4164 23.2988 23.2012C23.2988 24.9864 24.7511 26.4387 26.5361 26.4387C28.2355 26.4387 29.6542 25.1129 29.7659 23.4205C29.7816 23.1794 29.9918 22.999 30.23 23.0136C30.4706 23.0293 30.6527 23.2373 30.6368 23.4778C30.4952 25.6278 28.6938 27.3117 26.5361 27.3117Z" fill="white"/>
<path d="M26.8636 24.2546C26.7519 24.2546 26.6402 24.2119 26.5549 24.1267L25.0068 22.5785C24.8363 22.408 24.8363 22.1318 25.0068 21.9613C25.1773 21.7908 25.4535 21.7908 25.624 21.9613L26.8636 23.2008L31.2915 18.7729C31.462 18.6024 31.7382 18.6024 31.9087 18.7729C32.0792 18.9434 32.0792 19.2196 31.9087 19.3901L27.1722 24.1267C27.0869 24.2119 26.9752 24.2546 26.8636 24.2546Z" fill="white"/>
<path d="M17.6338 25.802C17.3927 25.802 17.1973 25.6066 17.1973 25.3655V22.3391C17.1973 22.098 17.3927 21.9026 17.6338 21.9026C17.8748 21.9026 18.0702 22.098 18.0702 22.3391V25.3655C18.0702 25.6066 17.8748 25.802 17.6338 25.802Z" fill="white"/>
<path d="M11.9384 25.802C11.6973 25.802 11.502 25.6066 11.502 25.3655V22.3391C11.502 22.098 11.6973 21.9026 11.9384 21.9026C12.1795 21.9026 12.3749 22.098 12.3749 22.3391V25.3655C12.3749 25.6066 12.1795 25.802 11.9384 25.802Z" fill="white"/>
<path d="M19.4086 28.443H10.164C10.0303 28.443 9.90397 28.3816 9.82128 28.2766C9.73842 28.1719 9.70841 28.0348 9.73961 27.9046L10.2058 25.9619C10.3519 25.3538 10.8905 24.929 11.5159 24.929H18.0567C18.6821 24.929 19.2207 25.3538 19.3669 25.9619L19.833 27.9046C19.8642 28.0348 19.8342 28.1719 19.7513 28.2766C19.6687 28.3816 19.5423 28.443 19.4086 28.443ZM10.7176 27.57H18.855L18.5181 26.1658C18.4666 25.9516 18.2768 25.8019 18.0567 25.8019H11.5159C11.2958 25.8019 11.106 25.9516 11.0545 26.1658L10.7176 27.57Z" fill="white"/>
</g>
<defs>
<clipPath id="clip0_192_36351">
<rect width="34" height="34" fill="white" transform="translate(0.0517578)"/>
</clipPath>
</defs>
</svg>
