<svg width="50" height="50" viewBox="0 0 50 50" fill="none" xmlns="http://www.w3.org/2000/svg">
<rect width="50" height="50" rx="5" fill="#00020F"/>
<rect x="0.5" y="0.5" width="49" height="49" rx="4.5" stroke="white" stroke-opacity="0.1"/>
<path fill-rule="evenodd" clip-rule="evenodd" d="M20.548 34.6001C29.6044 34.6001 34.558 27.2124 34.558 20.8066C34.558 20.5963 34.558 20.3876 34.5436 20.1796C35.5072 19.4944 36.3388 18.6436 37 17.6701C36.1024 18.0623 35.1484 18.3195 34.1728 18.433C35.2 17.8269 35.9692 16.8747 36.3376 15.7511C35.3704 16.3159 34.3132 16.7144 33.2104 16.9283C31.3456 14.9765 28.2268 14.8819 26.2432 16.7179C24.9652 17.9017 24.4216 19.6668 24.8188 21.3503C20.86 21.1542 17.1712 19.3136 14.6704 16.2855C13.3636 18.5007 14.032 21.3335 16.1956 22.756C15.412 22.7336 14.6452 22.5258 13.96 22.1501V22.2117C13.9612 24.5191 15.6136 26.5058 17.9104 26.963C17.1856 27.158 16.4248 27.1862 15.688 27.0457C16.3324 29.021 18.1816 30.374 20.2876 30.413C18.544 31.7623 16.39 32.4949 14.1724 32.4925C13.7812 32.4913 13.39 32.4689 13 32.4228C15.2524 33.8453 17.872 34.6002 20.548 34.5966" fill="white"/>
</svg>
