<svg width="76" height="96" viewBox="0 0 76 96" fill="none" xmlns="http://www.w3.org/2000/svg">
<path d="M61.584 76.8184C59.3906 76.8184 57.543 78.3242 57.0215 80.3574H52.2598C51.502 80.3574 50.8867 79.7402 50.8867 78.9844V68.4863H51.6074C58.3848 68.4863 63.8984 62.9727 63.8984 56.1953C63.8984 50.8477 60.4688 46.1758 55.4512 44.5234C55.8594 42.3652 57.2871 40.6973 58.9297 38.7793C61.5469 35.7246 64.5156 32.2617 64.3672 25.7773C64.3594 16.9668 57.1895 9.80273 48.3789 9.80273C39.5684 9.80273 32.3965 16.9668 32.3906 25.7773C32.3047 29.5898 33.2949 32.3574 34.6563 34.6113C34.2012 34.8848 33.7617 35.1855 33.3438 35.5156C31.2539 32.627 27.8945 30.8809 24.2695 30.8809C18.0957 30.8809 13.0742 35.9043 13.0742 42.0762C13.0742 42.7559 13.1348 43.4316 13.2559 44.0957C7.47656 45.1289 3.12891 50.1973 3.12891 56.1953C3.12891 62.9727 8.64258 68.4863 15.4199 68.4863H16.1406V78.9844C16.1406 79.7422 15.5234 80.3574 14.7676 80.3574H10.0059C9.48438 78.3242 7.63477 76.8184 5.44336 76.8184C2.8457 76.8184 0.732422 78.9316 0.732422 81.5293C0.732422 84.127 2.8457 86.2402 5.44336 86.2402C7.63672 86.2402 9.48438 84.7344 10.0059 82.7012H14.7676C16.8184 82.7012 18.4844 81.0332 18.4844 78.9844V68.4863H26.9062V85.7969C24.873 86.3184 23.3672 88.168 23.3672 90.3594C23.3672 92.957 25.4805 95.0703 28.0781 95.0703C30.6758 95.0703 32.7891 92.957 32.7891 90.3594C32.7891 88.166 31.2832 86.3184 29.25 85.7969V68.4863H37.7754V80.5059C35.7422 81.0273 34.2363 82.877 34.2363 85.0684C34.2363 87.666 36.3496 89.7793 38.9473 89.7793C41.5449 89.7793 43.6582 87.666 43.6582 85.0684C43.6582 82.875 42.1523 81.0273 40.1191 80.5059V68.4863H48.541V78.9844C48.541 81.0352 50.209 82.7012 52.2578 82.7012H57.0195C57.541 84.7344 59.3906 86.2402 61.582 86.2402C64.1797 86.2402 66.293 84.127 66.293 81.5293C66.2949 78.9316 64.1816 76.8184 61.584 76.8184ZM5.44531 83.8965C4.14062 83.8965 3.07812 82.834 3.07812 81.5293C3.07812 80.2246 4.14062 79.1621 5.44531 79.1621C6.75 79.1621 7.8125 80.2246 7.8125 81.5293C7.8125 82.8359 6.75 83.8965 5.44531 83.8965ZM30.4473 90.3594C30.4473 91.6641 29.3848 92.7266 28.0801 92.7266C26.7754 92.7266 25.7129 91.6641 25.7129 90.3594C25.7129 89.0547 26.7754 87.9922 28.0801 87.9922C29.3848 87.9922 30.4473 89.0547 30.4473 90.3594ZM41.3164 85.0684C41.3164 86.373 40.2539 87.4355 38.9492 87.4355C37.6445 87.4355 36.582 86.373 36.582 85.0684C36.582 83.7637 37.6445 82.7012 38.9492 82.7012C40.2539 82.7012 41.3164 83.7637 41.3164 85.0684ZM46.3457 41.9062H50.4121V43.4902H46.3457V41.9062ZM53.0664 45.834V48.2129H43.6934V45.834H53.0664ZM43.6914 50.5566H53.0645V51.4805L50.9688 53.5684C50.5957 53.9395 50.1992 54.1133 49.7168 54.1133H47.0391C46.5566 54.1133 46.1602 53.9395 45.7871 53.5684L43.6914 51.4805V50.5566ZM34.7344 25.8164C34.7344 25.8066 34.7344 25.7988 34.7344 25.7891C34.7344 18.2656 40.8555 12.1445 48.3789 12.1445C55.9024 12.1445 62.0234 18.2656 62.0234 25.7891V25.8164C62.1543 31.4141 59.6094 34.3828 57.1504 37.252C55.4922 39.1875 53.916 41.0273 53.2793 43.4883H52.7539V40.7344C52.7539 40.0879 52.2285 39.5625 51.582 39.5625H50.918L52.3574 28.209C52.7637 28.3867 53.2324 28.4883 53.7598 28.4883C55.6309 28.4883 57.1523 26.9668 57.1523 25.0957C57.1523 23.2246 55.6309 21.7031 53.7598 21.7031C52.75 21.7031 51.8535 22.0898 51.2363 22.7949C50.7031 23.4023 50.4063 24.2031 50.3984 25.0566C50.3926 25.084 50.3887 25.1113 50.3848 25.1387L48.5566 39.5625H48.1953L46.3711 25.1758C46.3672 25.1484 46.3633 25.1211 46.3574 25.0938C46.3496 24.2422 46.0527 23.4395 45.5195 22.832C44.9023 22.1289 44.0059 21.7402 42.9961 21.7402C41.125 21.7402 39.6035 23.2617 39.6035 25.1328C39.6035 27.0039 41.125 28.5254 42.9961 28.5254C43.5234 28.5254 43.9902 28.4238 44.3984 28.2461L45.834 39.5625H45.1758C44.5293 39.5625 44.0039 40.0879 44.0039 40.7344V43.4902H43.4785C42.8418 41.0293 41.2656 39.1875 39.6074 37.2539C37.1465 34.3828 34.6016 31.4141 34.7344 25.8164ZM52.7422 25.0938C52.7422 24.8008 52.8359 24.5273 52.9981 24.3418C53.1719 24.1445 53.4199 24.0488 53.7598 24.0488C54.3379 24.0488 54.8086 24.5195 54.8086 25.0977C54.8086 25.6758 54.3379 26.1465 53.7598 26.1465C52.8164 26.1445 52.7422 25.3398 52.7422 25.0938ZM44.0156 25.1309C44.0156 25.377 43.9414 26.1816 42.9981 26.1816C42.4199 26.1816 41.9492 25.7109 41.9492 25.1328C41.9492 24.5547 42.4199 24.084 42.9981 24.084C43.3379 24.084 43.5859 24.1797 43.7598 24.377C43.9219 24.5645 44.0156 24.8379 44.0156 25.1309ZM5.47461 56.1934C5.47461 50.9609 9.56445 46.6016 14.7852 46.2676C15.1445 46.2441 15.4746 46.0566 15.6777 45.7598C15.8809 45.4629 15.9375 45.0879 15.8281 44.7441C15.5566 43.8828 15.418 42.9863 15.418 42.0742C15.418 37.1934 19.3887 33.2227 24.2695 33.2227C27.5215 33.2227 30.5059 35 32.0586 37.8633C32.2344 38.1875 32.5527 38.4102 32.9199 38.4648C33.2852 38.5195 33.6543 38.3965 33.916 38.1348C34.5391 37.5137 35.2324 36.9824 35.9863 36.543C36.5898 37.332 37.2188 38.0664 37.8281 38.7773C39.5312 40.7637 41.002 42.4844 41.3477 44.7598V51.9668C41.3477 52.2773 41.4727 52.5762 41.6934 52.7969L44.1348 55.2285C44.9531 56.043 45.9297 56.457 47.041 56.457H49.7188C50.8301 56.457 51.8086 56.043 52.625 55.2285L55.0664 52.7969C55.2871 52.5762 55.4121 52.2773 55.4121 51.9668V47.0059C59.0938 48.5273 61.5586 52.1172 61.5586 56.1934C61.5586 61.6777 57.0957 66.1406 51.6113 66.1406H15.4219C9.93555 66.1406 5.47461 61.6797 5.47461 56.1934ZM61.584 83.8965C60.2793 83.8965 59.2168 82.834 59.2168 81.5293C59.2168 80.2246 60.2793 79.1621 61.584 79.1621C62.8887 79.1621 63.9512 80.2246 63.9512 81.5293C63.9512 82.8359 62.8906 83.8965 61.584 83.8965ZM47.207 6.62891V2.10156C47.207 1.45508 47.7324 0.929688 48.3789 0.929688C49.0254 0.929688 49.5508 1.45508 49.5508 2.10156V6.62891C49.5508 7.27539 49.0254 7.80078 48.3789 7.80078C47.7324 7.80078 47.207 7.27734 47.207 6.62891ZM34.5059 6.13281C34.1816 5.57227 34.375 4.85547 34.9355 4.53125C35.4961 4.20703 36.2129 4.40039 36.5371 4.96094L38.8008 8.88281C39.125 9.44336 38.9316 10.1602 38.3711 10.4844C38.1875 10.5898 37.9844 10.6406 37.7871 10.6406C37.3828 10.6406 36.9883 10.4297 36.7715 10.0547L34.5059 6.13281ZM25.0938 14.373C25.418 13.8125 26.1348 13.6211 26.6953 13.9434L30.6172 16.207C31.1777 16.5312 31.3691 17.248 31.0469 17.8086C30.8301 18.1836 30.4355 18.3945 30.0313 18.3945C29.832 18.3945 29.6309 18.3438 29.4473 18.2383L25.5254 15.9746C24.9609 15.6504 24.7695 14.9336 25.0938 14.373ZM21.4902 27.8184C21.4902 27.1719 22.0156 26.6465 22.6621 26.6465H27.1895C27.8359 26.6465 28.3613 27.1719 28.3613 27.8184C28.3613 28.4648 27.8359 28.9902 27.1895 28.9902H22.6621C22.0156 28.9902 21.4902 28.4648 21.4902 27.8184ZM57.957 8.88281L60.2207 4.96094C60.5449 4.40039 61.2617 4.20898 61.8223 4.53125C62.3828 4.85547 62.5742 5.57227 62.252 6.13281L59.9883 10.0547C59.7715 10.4297 59.377 10.6406 58.9727 10.6406C58.7734 10.6406 58.5723 10.5898 58.3887 10.4844C57.8262 10.1602 57.6348 9.44336 57.957 8.88281ZM71.2344 15.9746L67.3125 18.2383C67.1289 18.3438 66.9258 18.3945 66.7285 18.3945C66.3242 18.3945 65.9297 18.1836 65.7129 17.8086C65.3887 17.248 65.582 16.5312 66.1426 16.207L70.0645 13.9434C70.625 13.6211 71.3418 13.8125 71.666 14.373C71.9902 14.9336 71.7949 15.6504 71.2344 15.9746ZM75.2656 27.8184C75.2656 28.4648 74.7402 28.9902 74.0938 28.9902H69.5664C68.9199 28.9902 68.3945 28.4648 68.3945 27.8184C68.3945 27.1719 68.9199 26.6465 69.5664 26.6465H74.0938C74.7422 26.6465 75.2656 27.1699 75.2656 27.8184Z" fill="white"/>
</svg>
