<svg width="26" height="32" viewBox="0 0 26 32" fill="none" xmlns="http://www.w3.org/2000/svg">
<path d="M21.0186 25.7982C20.2729 25.7982 19.6447 26.3102 19.4674 27.0015H17.8484C17.5907 27.0015 17.3816 26.7917 17.3816 26.5347V22.9654H17.6266C19.9309 22.9654 21.8055 21.0907 21.8055 18.7864C21.8055 16.9682 20.6395 15.3798 18.9335 14.818C19.0723 14.0842 19.5577 13.5171 20.1162 12.865C21.006 11.8264 22.0154 10.649 21.9649 8.4443C21.9623 5.44871 19.5245 3.01293 16.5289 3.01293C13.5333 3.01293 11.0949 5.44871 11.0929 8.4443C11.0637 9.74055 11.4004 10.6815 11.8632 11.4479C11.7085 11.5408 11.5591 11.6431 11.417 11.7553C10.7064 10.7732 9.56422 10.1795 8.33172 10.1795C6.23262 10.1795 4.52531 11.8875 4.52531 13.9859C4.52531 14.217 4.5459 14.4468 4.58707 14.6725C2.62211 15.0238 1.14391 16.7471 1.14391 18.7864C1.14391 21.0907 3.01855 22.9654 5.32285 22.9654H5.56789V26.5347C5.56789 26.7923 5.35805 27.0015 5.10105 27.0015H3.48207C3.30477 26.3102 2.6759 25.7982 1.93082 25.7982C1.04762 25.7982 0.329102 26.5168 0.329102 27.4C0.329102 28.2832 1.04762 29.0017 1.93082 29.0017C2.67656 29.0017 3.30477 28.4897 3.48207 27.7984H5.10105C5.79832 27.7984 6.36477 27.2313 6.36477 26.5347V22.9654H9.2282V28.8509C8.53691 29.0282 8.02492 29.6571 8.02492 30.4022C8.02492 31.2854 8.74344 32.0039 9.62664 32.0039C10.5098 32.0039 11.2284 31.2854 11.2284 30.4022C11.2284 29.6564 10.7164 29.0282 10.0251 28.8509V22.9654H12.9237V27.052C12.2324 27.2293 11.7204 27.8582 11.7204 28.6032C11.7204 29.4864 12.4389 30.205 13.3221 30.205C14.2054 30.205 14.9239 29.4864 14.9239 28.6032C14.9239 27.8575 14.4119 27.2293 13.7206 27.052V22.9654H16.584V26.5347C16.584 27.232 17.1511 27.7984 17.8477 27.7984H19.4667C19.644 28.4897 20.2729 29.0017 21.018 29.0017C21.9012 29.0017 22.6197 28.2832 22.6197 27.4C22.6203 26.5168 21.9018 25.7982 21.0186 25.7982ZM1.93148 28.2048C1.48789 28.2048 1.12664 27.8436 1.12664 27.4C1.12664 26.9564 1.48789 26.5951 1.93148 26.5951C2.37508 26.5951 2.73633 26.9564 2.73633 27.4C2.73633 27.8442 2.37508 28.2048 1.93148 28.2048ZM10.4321 30.4022C10.4321 30.8458 10.0709 31.207 9.62731 31.207C9.18371 31.207 8.82246 30.8458 8.82246 30.4022C8.82246 29.9586 9.18371 29.5973 9.62731 29.5973C10.0709 29.5973 10.4321 29.9586 10.4321 30.4022ZM14.1277 28.6032C14.1277 29.0468 13.7664 29.4081 13.3228 29.4081C12.8792 29.4081 12.518 29.0468 12.518 28.6032C12.518 28.1596 12.8792 27.7984 13.3228 27.7984C13.7664 27.7984 14.1277 28.1596 14.1277 28.6032ZM15.8376 13.9281H17.2202V14.4667H15.8376V13.9281ZM18.1227 15.2636V16.0724H14.9358V15.2636H18.1227ZM14.9352 16.8693H18.122V17.1834L17.4095 17.8932C17.2826 18.0194 17.1478 18.0785 16.9838 18.0785H16.0734C15.9093 18.0785 15.7745 18.0194 15.6477 17.8932L14.9352 17.1834V16.8693ZM11.8898 8.45758C11.8898 8.45426 11.8898 8.4516 11.8898 8.44828C11.8898 5.89031 13.9709 3.80914 16.5289 3.80914C19.0869 3.80914 21.168 5.89031 21.168 8.44828V8.45758C21.2125 10.3608 20.3473 11.3702 19.5112 12.3457C18.9474 13.0037 18.4115 13.6293 18.195 14.466H18.0164V13.5297C18.0164 13.3099 17.8378 13.1313 17.618 13.1313H17.3922L17.8816 9.27105C18.0197 9.33148 18.1791 9.36602 18.3584 9.36602C18.9946 9.36602 19.5119 8.84871 19.5119 8.21254C19.5119 7.57637 18.9946 7.05906 18.3584 7.05906C18.0151 7.05906 17.7103 7.19055 17.5004 7.43027C17.3191 7.6368 17.2182 7.90906 17.2155 8.19926C17.2136 8.20855 17.2122 8.21785 17.2109 8.22715L16.5893 13.1313H16.4665L15.8462 8.23977C15.8449 8.23047 15.8436 8.22117 15.8416 8.21187C15.8389 7.92234 15.738 7.64941 15.5567 7.44289C15.3469 7.20383 15.0421 7.07168 14.6987 7.07168C14.0626 7.07168 13.5453 7.58898 13.5453 8.22516C13.5453 8.86133 14.0626 9.37863 14.6987 9.37863C14.878 9.37863 15.0368 9.3441 15.1755 9.28367L15.6636 13.1313H15.4398C15.22 13.1313 15.0414 13.3099 15.0414 13.5297V14.4667H14.8628C14.6463 13.63 14.1104 13.0037 13.5466 12.3463C12.7099 11.3702 11.8446 10.3608 11.8898 8.45758ZM18.0124 8.21187C18.0124 8.11227 18.0443 8.0193 18.0994 7.95621C18.1585 7.88914 18.2429 7.8566 18.3584 7.8566C18.555 7.8566 18.715 8.01664 18.715 8.2132C18.715 8.40977 18.555 8.56981 18.3584 8.56981C18.0377 8.56914 18.0124 8.29555 18.0124 8.21187ZM15.0454 8.22449C15.0454 8.30816 15.0202 8.58176 14.6994 8.58176C14.5029 8.58176 14.3428 8.42172 14.3428 8.22516C14.3428 8.02859 14.5029 7.86856 14.6994 7.86856C14.815 7.86856 14.8993 7.90109 14.9584 7.96816C15.0135 8.03191 15.0454 8.12488 15.0454 8.22449ZM1.94145 18.7857C1.94145 17.0067 3.33199 15.5245 5.10703 15.411C5.22922 15.403 5.34145 15.3393 5.41051 15.2383C5.47957 15.1374 5.49883 15.0099 5.46164 14.893C5.36934 14.6002 5.32219 14.2954 5.32219 13.9852C5.32219 12.3257 6.67223 10.9757 8.33172 10.9757C9.43738 10.9757 10.4521 11.58 10.98 12.5535C11.0398 12.6638 11.148 12.7395 11.2729 12.758C11.397 12.7766 11.5225 12.7348 11.6115 12.6458C11.8234 12.4346 12.0591 12.254 12.3154 12.1046C12.5206 12.3729 12.7345 12.6226 12.9416 12.8643C13.5207 13.5396 14.0207 14.1247 14.1383 14.8983V17.3487C14.1383 17.4543 14.1808 17.5559 14.2558 17.6309L15.0859 18.4577C15.3641 18.7346 15.6962 18.8754 16.074 18.8754H16.9845C17.3623 18.8754 17.695 18.7346 17.9726 18.4577L18.8027 17.6309C18.8777 17.5559 18.9202 17.4543 18.9202 17.3487V15.662C20.172 16.1793 21.01 17.3998 21.01 18.7857C21.01 20.6504 19.4926 22.1678 17.6279 22.1678H5.32351C3.45816 22.1678 1.94145 20.6511 1.94145 18.7857ZM21.0186 28.2048C20.575 28.2048 20.2138 27.8436 20.2138 27.4C20.2138 26.9564 20.575 26.5951 21.0186 26.5951C21.4622 26.5951 21.8235 26.9564 21.8235 27.4C21.8235 27.8442 21.4629 28.2048 21.0186 28.2048ZM16.1305 1.93383V0.394531C16.1305 0.174727 16.3091 -0.00390625 16.5289 -0.00390625C16.7487 -0.00390625 16.9273 0.174727 16.9273 0.394531V1.93383C16.9273 2.15363 16.7487 2.33227 16.5289 2.33227C16.3091 2.33227 16.1305 2.1543 16.1305 1.93383ZM11.8121 1.76516C11.7018 1.57457 11.7676 1.33086 11.9582 1.22062C12.1487 1.11039 12.3925 1.17613 12.5027 1.36672L13.2723 2.70016C13.3826 2.89074 13.3168 3.13445 13.1262 3.24469C13.0638 3.28055 12.9948 3.29781 12.9277 3.29781C12.7902 3.29781 12.6561 3.22609 12.5824 3.09859L11.8121 1.76516ZM8.61195 4.56684C8.72219 4.37625 8.9659 4.31117 9.15648 4.42074L10.4899 5.19039C10.6805 5.30062 10.7456 5.54434 10.636 5.73492C10.5623 5.86242 10.4282 5.93414 10.2907 5.93414C10.223 5.93414 10.1546 5.91688 10.0921 5.88102L8.75871 5.11137C8.5668 5.00113 8.50172 4.75742 8.61195 4.56684ZM7.38676 9.13824C7.38676 8.91844 7.56539 8.7398 7.7852 8.7398H9.32449C9.5443 8.7398 9.72293 8.91844 9.72293 9.13824C9.72293 9.35805 9.5443 9.53668 9.32449 9.53668H7.7852C7.56539 9.53668 7.38676 9.35805 7.38676 9.13824ZM19.7855 2.70016L20.5551 1.36672C20.6653 1.17613 20.9091 1.11105 21.0996 1.22062C21.2902 1.33086 21.3553 1.57457 21.2457 1.76516L20.4761 3.09859C20.4024 3.22609 20.2682 3.29781 20.1308 3.29781C20.063 3.29781 19.9946 3.28055 19.9322 3.24469C19.741 3.13445 19.6759 2.89074 19.7855 2.70016ZM24.2998 5.11137L22.9663 5.88102C22.9039 5.91688 22.8348 5.93414 22.7678 5.93414C22.6303 5.93414 22.4962 5.86242 22.4225 5.73492C22.3122 5.54434 22.378 5.30062 22.5686 5.19039L23.902 4.42074C24.0926 4.31117 24.3363 4.37625 24.4465 4.56684C24.5568 4.75742 24.4904 5.00113 24.2998 5.11137ZM25.6704 9.13824C25.6704 9.35805 25.4918 9.53668 25.272 9.53668H23.7327C23.5129 9.53668 23.3342 9.35805 23.3342 9.13824C23.3342 8.91844 23.5129 8.7398 23.7327 8.7398H25.272C25.4924 8.7398 25.6704 8.91777 25.6704 9.13824Z" fill="#194EFF"/>
</svg>
