<svg width="100" height="100" viewBox="0 0 100 100" fill="none" xmlns="http://www.w3.org/2000/svg">
<g clip-path="url(#clip0_89_9746)">
<path d="M79.1948 74.3012H51.8077C50.5196 68.7945 45.6104 64.8988 39.9555 64.8955H37.3511C36.7026 64.8955 36.1327 65.3262 35.9554 65.9504L32.7827 77.1323L30.5191 73.0909L32.3965 67.0976C32.5349 66.6572 32.4548 66.1771 32.1811 65.8047C31.9083 65.4331 31.4744 65.2129 31.0121 65.2129H24.4246C23.9631 65.2129 23.5292 65.4331 23.2556 65.8047C22.9819 66.1771 22.9026 66.6572 23.0402 67.0976L24.9249 73.1135L22.99 76.8489L20.142 65.7448C19.9663 65.0599 19.3227 64.6017 18.6183 64.6592L15.7379 64.8955C12.3206 64.9126 9.06777 66.3657 6.77424 68.8997C4.48152 71.4329 3.35945 74.8145 3.68247 78.2163V98.5496C3.68247 99.3503 4.33175 100 5.13323 100H68.8322C69.4014 100 69.9179 99.6676 70.1535 99.1503L80.516 76.3527C80.72 75.9033 80.682 75.382 80.4148 74.9675C80.1477 74.553 79.6887 74.302 79.1948 74.302V74.3012ZM29.0368 68.1136L27.8823 71.7996H27.5536L26.3992 68.1136H29.0368ZM6.57751 78.0001C6.31359 75.3925 7.16608 72.7954 8.92366 70.8508C10.6813 68.907 13.1796 67.7979 15.8002 67.7979C15.8399 67.7979 15.8795 67.7963 15.9184 67.793L17.6363 67.6522L21.1232 81.2514C21.2689 81.8181 21.7409 82.2423 22.3205 82.3265C22.9002 82.4107 23.4734 82.1387 23.7737 81.6359C23.7891 81.61 23.8037 81.5833 23.8182 81.5566L27.3706 74.7011H28.096L31.9585 81.5995C32.2451 82.1112 32.8118 82.3994 33.3939 82.3314C33.976 82.2626 34.4601 81.8505 34.6204 81.2862L38.4473 67.7971H39.9555C44.0098 67.7995 47.593 70.433 48.805 74.3012H43.9621C43.3938 74.3012 42.8773 74.6331 42.6417 75.1504L32.6653 97.0988H6.5848V78.1451C6.5848 78.0965 6.58237 78.0479 6.57751 78.0001ZM67.8972 97.0996H35.8518L44.8955 77.2035H76.9409L67.8972 97.0996Z" fill="white"/>
<path d="M27.5157 63.2788C34.0109 63.2715 39.2748 58.0069 39.2829 51.5116V47.3852C39.2829 40.8859 34.0142 35.618 27.5157 35.618C21.0164 35.618 15.7485 40.8859 15.7485 47.3852V51.5116C15.7558 58.0069 21.0197 63.2715 27.5157 63.2788ZM18.6501 47.3852C18.6501 42.4889 22.6194 38.5196 27.5157 38.5196C32.412 38.5196 36.3814 42.4889 36.3814 47.3852V51.5116C36.3814 56.4079 32.412 60.3773 27.5157 60.3773C22.6194 60.3773 18.6501 56.4079 18.6501 51.5116V47.3852Z" fill="white"/>
<path d="M71.282 0C59.8452 0.000809575 49.8332 7.67801 46.8644 18.723C43.8957 29.7673 48.7095 41.43 58.6041 47.1642V54.1816C58.6041 54.7095 58.8907 55.196 59.353 55.4511C59.8144 55.7069 60.3787 55.6915 60.8264 55.4106L68.7448 50.4438C69.5828 50.5264 70.4336 50.5693 71.282 50.5693C85.2464 50.5693 96.5667 39.249 96.5667 25.2847C96.5667 11.3203 85.2464 0 71.282 0ZM71.282 47.6678C70.3769 47.6678 69.4735 47.6144 68.5748 47.5059C68.2453 47.4662 67.9118 47.5407 67.6301 47.7172L61.5056 51.5594V46.3126C61.5056 45.7774 61.2109 45.2852 60.7389 45.0326C50.7634 39.7113 46.3204 27.7879 50.3829 17.2359C54.4445 6.68466 65.7356 0.817671 76.7046 3.55889C87.6735 6.30012 94.8771 16.7898 93.4976 28.0113C92.1181 39.2328 82.5878 47.6654 71.282 47.6678Z" fill="white"/>
<path d="M79.0055 26.3655H61.6109C60.8094 26.3655 60.1602 27.0148 60.1602 27.8162C60.1602 28.6177 60.8094 29.267 61.6109 29.267H79.0055C79.8069 29.267 80.4562 28.6177 80.4562 27.8162C80.4562 27.0148 79.8069 26.3655 79.0055 26.3655Z" fill="white"/>
<path d="M61.4862 20.977H72.9125C73.714 20.977 74.3633 20.3277 74.3633 19.5262C74.3633 18.7247 73.714 18.0754 72.9125 18.0754H61.4862C60.6847 18.0754 60.0354 18.7247 60.0354 19.5262C60.0354 20.3277 60.6847 20.977 61.4862 20.977Z" fill="white"/>
</g>
<defs>
<clipPath id="clip0_89_9746">
<rect width="100" height="100" fill="white"/>
</clipPath>
</defs>
</svg>
