<svg width="34" height="34" viewBox="0 0 34 34" fill="none" xmlns="http://www.w3.org/2000/svg">
<rect x="0.5" y="0.5" width="33" height="33" rx="4.5" stroke="white"/>
<g clip-path="url(#clip0_53_1773)">
<path fill-rule="evenodd" clip-rule="evenodd" d="M17 16.25C15.7572 16.25 14.75 15.2428 14.75 14C14.75 12.7572 15.7572 11.75 17 11.75C18.2428 11.75 19.25 12.7572 19.25 14C19.25 15.2428 18.2428 16.25 17 16.25ZM17 10.25C14.9293 10.25 13.25 11.9285 13.25 14C13.25 16.0715 14.9293 17.75 17 17.75C19.0708 17.75 20.75 16.0715 20.75 14C20.75 11.9285 19.0708 10.25 17 10.25ZM17 26.75C15.7527 26.7568 9.5 17.1357 9.5 14C9.5 9.8585 12.8577 6.5 17 6.5C21.1423 6.5 24.5 9.8585 24.5 14C24.5 17.0938 18.2277 26.7568 17 26.75ZM17 5C12.0297 5 8 9.02975 8 14C8 17.7635 15.5037 29.0082 17 29C18.473 29.0082 26 17.7125 26 14C26 9.02975 21.9703 5 17 5Z" fill="white"/>
</g>
<defs>
<clipPath id="clip0_53_1773">
<rect width="24" height="24" fill="white" transform="translate(5 5)"/>
</clipPath>
</defs>
</svg>
