<svg width="60" height="60" viewBox="0 0 60 60" fill="none" xmlns="http://www.w3.org/2000/svg">
<circle cx="30" cy="30" r="30" fill="white"/>
<g clip-path="url(#clip0_142_13240)">
<path fill-rule="evenodd" clip-rule="evenodd" d="M30 29.0625C28.4466 29.0625 27.1875 27.8034 27.1875 26.25C27.1875 24.6966 28.4466 23.4375 30 23.4375C31.5534 23.4375 32.8125 24.6966 32.8125 26.25C32.8125 27.8034 31.5534 29.0625 30 29.0625ZM30 21.5625C27.4116 21.5625 25.3125 23.6606 25.3125 26.25C25.3125 28.8394 27.4116 30.9375 30 30.9375C32.5884 30.9375 34.6875 28.8394 34.6875 26.25C34.6875 23.6606 32.5884 21.5625 30 21.5625ZM30 42.1875C28.4409 42.1959 20.625 30.1697 20.625 26.25C20.625 21.0731 24.8222 16.875 30 16.875C35.1778 16.875 39.375 21.0731 39.375 26.25C39.375 30.1172 31.5347 42.1959 30 42.1875ZM30 15C23.7872 15 18.75 20.0372 18.75 26.25C18.75 30.9544 28.1297 45.0103 30 45C31.8413 45.0103 41.25 30.8906 41.25 26.25C41.25 20.0372 36.2128 15 30 15Z" fill="#194EFF"/>
</g>
<defs>
<clipPath id="clip0_142_13240">
<rect width="30" height="30" fill="white" transform="translate(15 15)"/>
</clipPath>
</defs>
</svg>
