<svg width="34" height="34" viewBox="0 0 34 34" fill="none" xmlns="http://www.w3.org/2000/svg">
<path d="M32.5507 17.9445L27.6 16.5414V3.41317C27.6001 3.29368 27.5598 3.17767 27.4858 3.08387C27.4118 2.99008 27.3083 2.92399 27.192 2.89626L21.0827 1.44064C21.0583 1.43877 21.0337 1.43877 21.0093 1.44064C20.9725 1.4329 20.9349 1.42933 20.8972 1.43001L8.68806 2.88564C8.55903 2.9011 8.44014 2.96333 8.35389 3.06054C8.26764 3.15776 8.22002 3.28321 8.22003 3.41317V16.5956C8.22015 16.7309 8.27227 16.861 8.36559 16.959L1.51884 17.9296C1.3922 17.9476 1.27632 18.0107 1.19249 18.1074C1.10866 18.204 1.0625 18.3276 1.0625 18.4555V31.638C1.0624 31.7753 1.11551 31.9074 1.2107 32.0065C1.3059 32.1055 1.43576 32.1638 1.57303 32.1692L11.8437 32.5735H11.8644H11.9058L17.0117 32.1713L27.2499 32.5745H27.2707H27.3121L32.4477 32.1703C32.5813 32.1598 32.706 32.0993 32.7968 32.0007C32.8877 31.9022 32.9379 31.773 32.9375 31.639V18.4555C32.9375 18.3398 32.8997 18.2273 32.8299 18.1351C32.7601 18.0429 32.6621 17.9759 32.5507 17.9445ZM17.0382 17.9136L14.9908 17.3335L19.9702 17.4982L17.0382 17.9136ZM26.5375 16.0968L21.4938 16.4304V2.63011L26.5375 3.83286V16.0968ZM9.28253 3.88439L20.4313 2.55626V16.4511L9.28253 16.0792V3.88439ZM2.125 18.9166L11.3332 17.6114V31.4897L2.125 31.1274V18.9166ZM12.3957 17.7027L16.4688 18.8593V31.1471L12.3957 31.4658V17.7027ZM17.5312 18.9166L26.7394 17.6114V31.4897L17.5312 31.1274V18.9166ZM31.875 31.1471L27.8019 31.4658V17.7027L31.875 18.8593V31.1471Z" fill="white"/>
<path d="M25.3799 19.8103C25.239 19.8103 25.1039 19.8663 25.0042 19.9659C24.9046 20.0655 24.8486 20.2007 24.8486 20.3416V22.0208C24.8486 22.1617 24.9046 22.2969 25.0042 22.3965C25.1039 22.4961 25.239 22.5521 25.3799 22.5521C25.5208 22.5521 25.6559 22.4961 25.7555 22.3965C25.8552 22.2969 25.9111 22.1617 25.9111 22.0208V20.3416C25.9111 20.2007 25.8552 20.0655 25.7555 19.9659C25.6559 19.8663 25.5208 19.8103 25.3799 19.8103Z" fill="white"/>
<path d="M25.3799 23.3064C25.239 23.3064 25.1039 23.3624 25.0042 23.462C24.9046 23.5616 24.8486 23.6968 24.8486 23.8376V26.9566C24.8486 27.0975 24.9046 27.2326 25.0042 27.3323C25.1039 27.4319 25.239 27.4879 25.3799 27.4879C25.5208 27.4879 25.6559 27.4319 25.7555 27.3323C25.8552 27.2326 25.9111 27.0975 25.9111 26.9566V23.8376C25.9111 23.6968 25.8552 23.5616 25.7555 23.462C25.6559 23.3624 25.5208 23.3064 25.3799 23.3064Z" fill="white"/>
</svg>
