<svg width="60" height="60" viewBox="0 0 60 60" fill="none" xmlns="http://www.w3.org/2000/svg">
<circle cx="30" cy="30" r="30" fill="white"/>
<path fill-rule="evenodd" clip-rule="evenodd" d="M20.3584 21.1391C21.7429 19.6831 22.2322 19.2748 22.8222 19.0847C23.2305 18.9779 23.6587 18.972 24.0698 19.0675C24.611 19.2245 24.7542 19.3439 26.5288 21.1092C28.0879 22.6594 28.2436 22.8274 28.3931 23.1306C28.679 23.6627 28.7237 24.2912 28.5158 24.8582C28.3585 25.2901 28.1351 25.576 27.1896 26.523L26.5728 27.1404C26.4109 27.3046 26.3729 27.554 26.4784 27.7592C27.8488 30.0927 29.7927 32.0389 32.1265 33.4133C32.3952 33.5568 32.7261 33.5105 32.9446 33.2986L33.5377 32.7159C33.9043 32.3407 34.2926 31.9873 34.7004 31.6574C35.341 31.2647 36.1392 31.2297 36.8117 31.5647C37.1405 31.7218 37.2491 31.8191 38.857 33.4211C40.5152 35.0718 40.5624 35.1236 40.7449 35.5022C41.0884 36.1287 41.0848 36.8876 40.7355 37.5109C40.5577 37.8628 40.4492 37.99 39.5162 38.9417C38.953 39.5166 38.4228 40.0412 38.3378 40.1181C37.5682 40.7542 36.5808 41.0663 35.5846 40.9882C33.7621 40.8224 31.998 40.2599 30.4163 39.3407C26.913 37.4875 23.9304 34.7877 21.7413 31.4877C21.2645 30.797 20.8406 30.0714 20.4733 29.3172C19.4877 27.6308 18.9788 25.7094 19.0007 23.7572C19.0759 22.736 19.5665 21.7899 20.3584 21.1391Z" stroke="#194EFF" stroke-width="2" stroke-linecap="round" stroke-linejoin="round"/>
</svg>
