<svg width="80" height="80" viewBox="0 0 80 80" fill="none" xmlns="http://www.w3.org/2000/svg">
<g opacity="0.2">
<path d="M18.75 12.1445C8.40906 12.1445 0 20.5559 0 30.8945C0 40.3336 7.00844 48.1659 16.0995 49.4569C15.3717 54.7441 13.353 59.7748 10.1989 64.1373C9.58547 64.9887 9.60844 66.1423 10.263 66.9663C10.9052 67.777 12.0211 68.0844 13.0005 67.6713C27.8823 61.4595 37.5 47.0216 37.5 30.8945C37.5 20.5559 29.0909 12.1445 18.75 12.1445ZM61.25 12.1445C50.9091 12.1445 42.5 20.5559 42.5 30.8945C42.5 40.3336 49.5084 48.1659 58.5995 49.4569C57.8717 54.7441 55.853 59.7748 52.6989 64.1373C52.0855 64.9887 52.1084 66.1423 52.763 66.9663C53.4052 67.777 54.5211 68.0844 55.5005 67.6713C70.3823 61.4595 80 47.0216 80 30.8945C80 20.5559 71.5909 12.1445 61.25 12.1445Z" fill="white"/>
</g>
</svg>
