<svg width="35" height="34" viewBox="0 0 35 34" fill="none" xmlns="http://www.w3.org/2000/svg">
<path d="M5.50823 20.4832L6.35231 19.359C6.41814 19.2713 6.45522 19.1654 6.45847 19.0558C6.46172 18.9462 6.43098 18.8382 6.37047 18.7468C5.74232 17.799 5.30325 16.7388 5.07738 15.6244C5.05554 15.5171 5.00104 15.4191 4.92135 15.3439C4.84167 15.2687 4.74069 15.22 4.63225 15.2044L3.23926 15.0042V12.6208L4.63223 12.4205C4.74067 12.405 4.84165 12.3563 4.92134 12.2811C5.00103 12.2059 5.05553 12.1079 5.07738 12.0006C5.30324 10.8862 5.74231 9.82599 6.37045 8.8782C6.43096 8.78676 6.4617 8.67884 6.45845 8.56923C6.4552 8.45963 6.41812 8.35372 6.35229 8.26602L5.50823 7.14179L7.1938 5.45647L8.31778 6.30055C8.40542 6.3665 8.51135 6.40365 8.62098 6.4069C8.73062 6.41016 8.83856 6.37934 8.92996 6.31871C9.87774 5.69057 10.938 5.25149 12.0524 5.02562C12.1597 5.00378 12.2577 4.94928 12.3329 4.8696C12.408 4.78991 12.4567 4.68894 12.4723 4.5805L12.6726 3.1875H15.0559L15.2562 4.58047C15.2718 4.68891 15.3205 4.78989 15.3957 4.86958C15.4709 4.94926 15.5688 5.00376 15.6762 5.0256C16.7906 5.25147 17.8508 5.69055 18.7986 6.31869C18.89 6.37926 18.9979 6.41004 19.1075 6.40679C19.2171 6.40353 19.3231 6.36642 19.4107 6.30053L20.5347 5.45647L22.2203 7.14179L21.3762 8.26602C21.3104 8.35372 21.2733 8.45963 21.27 8.56923C21.2668 8.67884 21.2975 8.78676 21.358 8.8782C21.9862 9.82598 22.4253 10.8862 22.6511 12.0006C22.673 12.1079 22.7275 12.2059 22.8072 12.2811C22.8868 12.3563 22.9878 12.405 23.0963 12.4206L24.4893 12.6208V15.0042L23.0963 15.2045C22.9878 15.22 22.8869 15.2687 22.8072 15.3439C22.7275 15.4191 22.673 15.5171 22.6512 15.6244C22.4253 16.7388 21.9862 17.799 21.3581 18.7468C21.2976 18.8382 21.2668 18.9462 21.2701 19.0558C21.2733 19.1654 21.3104 19.2713 21.3762 19.359L22.2203 20.483L20.5347 22.1685L19.4107 21.3244C19.3229 21.2586 19.2168 21.2216 19.1071 21.2185C18.9973 21.2153 18.8893 21.2462 18.7978 21.3068C18.1486 21.7361 17.4459 22.0781 16.7075 22.3242C16.5739 22.3689 16.4636 22.465 16.4008 22.5911C16.338 22.7172 16.3279 22.8632 16.3726 22.9968C16.4174 23.1304 16.5135 23.2407 16.6396 23.3035C16.7657 23.3663 16.9117 23.3764 17.0453 23.3317C17.7518 23.0955 18.4297 22.7813 19.0665 22.3947L20.2655 23.2951C20.3678 23.3719 20.4944 23.4092 20.622 23.4001C20.7496 23.3911 20.8697 23.3363 20.9601 23.2458L23.2976 20.9083C23.388 20.8179 23.4428 20.6978 23.4519 20.5702C23.4609 20.4426 23.4237 20.316 23.3469 20.2137L22.4465 19.0145C22.9773 18.1434 23.3699 17.1953 23.6104 16.2039L25.096 15.9904C25.2225 15.9723 25.3382 15.9091 25.4219 15.8125C25.5057 15.7159 25.5517 15.5924 25.5518 15.4646V12.1604C25.5517 12.0326 25.5057 11.9091 25.4219 11.8125C25.3382 11.7159 25.2225 11.6527 25.096 11.6346L23.6104 11.4211C23.3699 10.4298 22.9773 9.48164 22.4465 8.6105L23.3469 7.41129C23.4237 7.30897 23.4609 7.18237 23.4519 7.05476C23.4428 6.92715 23.388 6.80708 23.2976 6.71663L20.9601 4.37918C20.8696 4.28876 20.7496 4.234 20.622 4.22495C20.4944 4.2159 20.3678 4.25316 20.2655 4.32989L19.0663 5.23027C18.1951 4.69949 17.247 4.30686 16.2557 4.06635L16.0422 2.58076C16.024 2.45425 15.9609 2.33853 15.8643 2.25482C15.7677 2.1711 15.6442 2.12501 15.5164 2.125H12.2121C12.0843 2.12501 11.9608 2.1711 11.8642 2.25482C11.7677 2.33853 11.7045 2.45425 11.6863 2.58076L11.4729 4.06635C10.4815 4.30686 9.5334 4.69949 8.66226 5.23027L7.46306 4.32989C7.36071 4.25316 7.23413 4.2159 7.10653 4.22495C6.97893 4.234 6.85888 4.28876 6.76839 4.37918L4.43094 6.71663C4.34047 6.80709 4.28568 6.92715 4.27662 7.05477C4.26757 7.18238 4.30486 7.30897 4.38165 7.4113L5.28203 8.6105C4.75125 9.48164 4.35862 10.4298 4.1181 11.4211L2.63252 11.6346C2.50601 11.6527 2.39029 11.7159 2.30657 11.8125C2.22286 11.9091 2.17677 12.0326 2.17676 12.1604V15.4646C2.17677 15.5924 2.22286 15.7159 2.30657 15.8125C2.39029 15.9091 2.50601 15.9723 2.63252 15.9904L4.1181 16.2039C4.35862 17.1952 4.75125 18.1434 5.28203 19.0145L4.38165 20.2137C4.30486 20.316 4.26757 20.4426 4.27662 20.5702C4.28568 20.6978 4.34047 20.8179 4.43094 20.9084L6.5824 23.0601C6.68213 23.1592 6.81707 23.2146 6.95764 23.2144C7.09821 23.2142 7.23295 23.1582 7.33235 23.0588C7.43175 22.9594 7.48769 22.8247 7.48793 22.6841C7.48816 22.5435 7.43267 22.4086 7.3336 22.3089L5.50823 20.4832Z" fill="#194EFF"/>
<path d="M8.54392 16.3073C8.03922 15.2316 7.87247 14.0282 8.06569 12.8558C8.2589 11.6834 8.803 10.5972 9.62619 9.74036C10.4494 8.88352 11.513 8.29638 12.6767 8.05639C13.8404 7.8164 15.0495 7.93484 16.1445 8.39607C17.2396 8.85731 18.169 9.63968 18.8103 10.64C19.4516 11.6402 19.7746 12.8114 19.7366 13.999C19.6987 15.1866 19.3016 16.3348 18.5977 17.2921C17.8939 18.2494 16.9164 18.9708 15.7941 19.3612C15.7282 19.384 15.6674 19.4195 15.6152 19.4658C15.563 19.5121 15.5204 19.5683 15.4899 19.631C15.4593 19.6937 15.4415 19.7619 15.4373 19.8315C15.4331 19.9012 15.4427 19.971 15.4655 20.0369C15.4883 20.1029 15.5238 20.1637 15.5701 20.2159C15.6164 20.2681 15.6725 20.3107 15.7353 20.3412C15.798 20.3717 15.8662 20.3896 15.9358 20.3938C16.0055 20.398 16.0753 20.3884 16.1412 20.3656C17.466 19.9049 18.6201 19.0534 19.4511 17.9235C20.2822 16.7935 20.7511 15.4382 20.7962 14.0363C20.8412 12.6344 20.4602 11.2517 19.7035 10.0707C18.9467 8.88976 17.8497 7.96594 16.5572 7.42113C15.2647 6.87632 13.8374 6.73613 12.4636 7.01904C11.0898 7.30196 9.83399 7.99469 8.8619 9.00585C7.88981 10.017 7.24709 11.2991 7.01852 12.683C6.78994 14.0669 6.98625 15.4876 7.58155 16.7576C7.64127 16.8852 7.74923 16.9839 7.8817 17.0319C8.01416 17.0799 8.16028 17.0734 8.2879 17.0136C8.41551 16.9539 8.51418 16.846 8.5622 16.7135C8.61021 16.581 8.60364 16.4349 8.54392 16.3073Z" fill="#194EFF"/>
<path d="M31.471 18.0095L29.9854 17.7961C29.7449 16.8047 29.3523 15.8566 28.8215 14.9855L29.7219 13.7862C29.7987 13.6839 29.8359 13.5573 29.8269 13.4297C29.8178 13.3021 29.763 13.182 29.6726 13.0916L27.5211 10.9399C27.4719 10.8901 27.4133 10.8505 27.3487 10.8234C27.2842 10.7964 27.2149 10.7823 27.1449 10.7821C27.0749 10.7819 27.0055 10.7956 26.9408 10.8223C26.8761 10.849 26.8173 10.8882 26.7677 10.9377C26.7182 10.9872 26.679 11.046 26.6523 11.1108C26.6256 11.1755 26.612 11.2448 26.6122 11.3149C26.6124 11.3849 26.6264 11.4542 26.6535 11.5187C26.6806 11.5833 26.7201 11.6419 26.7699 11.6911L28.5953 13.5167L27.7512 14.641C27.6854 14.7287 27.6483 14.8346 27.645 14.9442C27.6418 15.0538 27.6725 15.1617 27.733 15.2532C28.3612 16.2009 28.8003 17.2612 29.0261 18.3755C29.048 18.4829 29.1025 18.5809 29.1822 18.6561C29.2618 18.7312 29.3628 18.7799 29.4713 18.7955L30.8643 18.9958V21.3791L29.4713 21.5794C29.3628 21.595 29.2619 21.6437 29.1822 21.7189C29.1025 21.7941 29.048 21.892 29.0262 21.9994C28.8003 23.1137 28.3612 24.174 27.7331 25.1218C27.6726 25.2132 27.6418 25.3211 27.6451 25.4307C27.6483 25.5403 27.6854 25.6462 27.7512 25.7339L28.5953 26.8582L26.9097 28.5435L25.7857 27.6994C25.698 27.6337 25.5921 27.5967 25.4825 27.5934C25.3729 27.5902 25.265 27.6208 25.1736 27.6812C24.2258 28.3094 23.1655 28.7485 22.0512 28.9743C21.9438 28.9962 21.8458 29.0507 21.7707 29.1304C21.6955 29.21 21.6468 29.311 21.6312 29.4195L21.4309 30.8125H19.0476L18.8473 29.4195C18.8317 29.311 18.783 29.2101 18.7078 29.1304C18.6327 29.0507 18.5347 28.9962 18.4273 28.9743C17.313 28.7485 16.2527 28.3094 15.305 27.6813C15.2135 27.6208 15.1056 27.5901 14.996 27.5934C14.8864 27.5966 14.7805 27.6337 14.6928 27.6994L13.5688 28.5435L11.8832 26.8582L12.7273 25.7339C12.7931 25.6462 12.8302 25.5403 12.8335 25.4307C12.8367 25.3211 12.806 25.2132 12.7455 25.1218C12.1173 24.174 11.6782 23.1137 11.4524 21.9994C11.4305 21.892 11.376 21.794 11.2964 21.7188C11.2167 21.6437 11.1157 21.595 11.0073 21.5794L9.61426 21.3791V18.9958L11.0072 18.7955C11.1157 18.7799 11.2166 18.7312 11.2963 18.656C11.376 18.5809 11.4305 18.4829 11.4524 18.3755C11.6782 17.2612 12.1173 16.2009 12.7454 15.2532C12.806 15.1617 12.8367 15.0538 12.8334 14.9442C12.8302 14.8346 12.7931 14.7287 12.7273 14.641L11.8832 13.517L13.5688 11.8314L14.6928 12.6755C14.7805 12.7416 14.8867 12.7787 14.9965 12.7819C15.1062 12.785 15.2143 12.754 15.3057 12.6931C15.9546 12.2621 16.6584 11.9202 17.3983 11.6766C17.4647 11.6549 17.5262 11.6203 17.5792 11.5748C17.6322 11.5293 17.6757 11.4739 17.7073 11.4115C17.7388 11.3492 17.7577 11.2813 17.763 11.2117C17.7682 11.142 17.7597 11.072 17.7379 11.0057C17.7161 10.9393 17.6814 10.8779 17.6358 10.825C17.5902 10.7721 17.5346 10.7287 17.4722 10.6973C17.4099 10.6659 17.3419 10.6471 17.2722 10.642C17.2026 10.6369 17.1326 10.6455 17.0663 10.6675C16.3561 10.9012 15.6751 11.2157 15.0367 11.605L13.838 10.7048C13.7357 10.628 13.6091 10.5907 13.4815 10.5997C13.3539 10.6088 13.2338 10.6636 13.1434 10.7541L10.8059 13.0916C10.7155 13.182 10.6607 13.3021 10.6516 13.4297C10.6426 13.5573 10.6798 13.6839 10.7566 13.7863L11.657 14.9855C11.1262 15.8566 10.7336 16.8047 10.4931 17.796L9.00752 18.0095C8.88101 18.0277 8.76529 18.0909 8.68157 18.1874C8.59786 18.284 8.55177 18.4075 8.55176 18.5353V21.8396C8.55177 21.9674 8.59786 22.0909 8.68157 22.1875C8.76529 22.284 8.88101 22.3472 9.00752 22.3654L10.4931 22.5789C10.7336 23.5702 11.1262 24.5183 11.657 25.3895L10.7567 26.5887C10.6799 26.691 10.6426 26.8176 10.6516 26.9452C10.6607 27.0728 10.7155 27.1929 10.8059 27.2833L13.1434 29.6208C13.2339 29.7112 13.3539 29.7659 13.4815 29.775C13.6091 29.784 13.7357 29.7468 13.8381 29.6701L15.0373 28.7697C15.9084 29.3005 16.8565 29.6931 17.8479 29.9336L18.0613 31.4192C18.0795 31.5457 18.1427 31.6614 18.2392 31.7451C18.3358 31.8289 18.4593 31.8749 18.5871 31.875H21.8914C22.0192 31.8749 22.1427 31.8288 22.2393 31.7451C22.3359 31.6614 22.399 31.5457 22.4172 31.4192L22.6307 29.9336C23.622 29.6931 24.5701 29.3005 25.4413 28.7697L26.6405 29.6701C26.7428 29.7468 26.8694 29.784 26.997 29.775C27.1246 29.7659 27.2446 29.7112 27.3351 29.6208L29.6726 27.2833C29.7631 27.1929 29.8178 27.0728 29.8269 26.9452C29.836 26.8176 29.7987 26.691 29.7219 26.5887L28.8215 25.3895C29.3523 24.5183 29.7449 23.5702 29.9854 22.5789L31.471 22.3654C31.5975 22.3472 31.7132 22.2841 31.7969 22.1875C31.8807 22.0909 31.9267 21.9674 31.9268 21.8396V18.5353C31.9267 18.4075 31.8807 18.284 31.7969 18.1874C31.7132 18.0909 31.5975 18.0277 31.471 18.0095Z" fill="#194EFF"/>
<path d="M25.5596 17.6927C26.0643 18.7683 26.231 19.9718 26.0378 21.1441C25.8446 22.3165 25.3005 23.4028 24.4773 24.2596C23.6541 25.1164 22.5905 25.7036 21.4268 25.9436C20.2631 26.1836 19.054 26.0651 17.9589 25.6039C16.8639 25.1426 15.9345 24.3603 15.2932 23.36C14.6519 22.3597 14.3289 21.1885 14.3669 20.0009C14.4048 18.8133 14.8019 17.6652 15.5058 16.7079C16.2096 15.7506 17.1871 15.0291 18.3093 14.6388C18.4425 14.5927 18.552 14.4957 18.6136 14.369C18.6753 14.2422 18.684 14.0962 18.638 13.963C18.592 13.8298 18.4949 13.7204 18.3682 13.6587C18.2415 13.5971 18.0955 13.5883 17.9623 13.6344C16.6374 14.0951 15.4834 14.9465 14.6524 16.0765C13.8213 17.2064 13.3523 18.5618 13.3073 19.9637C13.2622 21.3656 13.6432 22.7482 14.4 23.9292C15.1568 25.1102 16.2538 26.034 17.5463 26.5788C18.8388 27.1236 20.2661 27.2638 21.6399 26.9809C23.0137 26.698 24.2695 26.0053 25.2416 24.9941C26.2137 23.9829 26.8564 22.7009 27.085 21.317C27.3135 19.9331 27.1172 18.5124 26.5219 17.2423C26.4924 17.1792 26.4506 17.1224 26.3991 17.0753C26.3476 17.0283 26.2874 16.9918 26.2218 16.968C26.1562 16.9443 26.0866 16.9336 26.0169 16.9368C25.9472 16.9399 25.8788 16.9568 25.8156 16.9863C25.7524 17.0159 25.6956 17.0576 25.6486 17.1091C25.6015 17.1606 25.5651 17.2209 25.5413 17.2865C25.5175 17.3521 25.5069 17.4217 25.51 17.4914C25.5132 17.5611 25.53 17.6295 25.5596 17.6927Z" fill="#194EFF"/>
</svg>
