<svg width="20" height="19" viewBox="0 0 20 19" fill="none" xmlns="http://www.w3.org/2000/svg">
<path d="M8.80843 0.785159C9.17718 0.0489328 10.2279 0.0489312 10.5967 0.785157L12.7681 5.12049C12.9151 5.41409 13.197 5.61679 13.5221 5.66279L18.3438 6.34507C19.1701 6.462 19.4981 7.47987 18.8956 8.05725L15.4158 11.3916C15.1749 11.6225 15.0649 11.9583 15.1227 12.2869L15.9536 17.0116C16.0969 17.8266 15.2448 18.4531 14.5096 18.0732L10.1608 15.8261C9.87329 15.6775 9.53168 15.6773 9.24397 15.8254L4.86996 18.0775C4.13484 18.456 3.28411 17.8296 3.42731 17.0152L4.25881 12.2869C4.31659 11.9583 4.20668 11.6225 3.96578 11.3916L0.486779 8.05805C-0.115925 7.48053 0.212418 6.4624 1.03897 6.34581L5.88271 5.6626C6.20801 5.61672 6.49003 5.41398 6.63716 5.12023L8.80843 0.785159Z" fill="#F9DA0E"/>
</svg>
